<?xml version="1.0" encoding="UTF-8"?>
<svg xmlns="http://www.w3.org/2000/svg" xmlns:xlink="http://www.w3.org/1999/xlink" width="100px" height="100px" viewBox="0 0 100 100" version="1.1">
<g id="surface1">
<rect x="0" y="0" width="100" height="100" style="fill:rgb(99.215686%,99.215686%,99.215686%);fill-opacity:1;stroke:none;"/>
<path style=" stroke:none;fill-rule:nonzero;fill:rgb(94.117647%,36.862745%,1.960784%);fill-opacity:1;" d="M 22.625 33.125 C 22.683594 33.15625 22.738281 33.1875 22.796875 33.222656 C 22.84375 33.253906 22.890625 33.28125 22.9375 33.3125 L 22.9375 33.4375 C 22.984375 33.453125 23.027344 33.46875 23.074219 33.484375 C 23.640625 33.734375 24.191406 34.304688 24.625 34.746094 L 24.625 34.871094 L 24.75 34.871094 L 24.75 34.996094 L 24.875 34.996094 C 25.074219 35.214844 25.253906 35.453125 25.4375 35.683594 C 25.476562 35.734375 25.476562 35.734375 25.515625 35.785156 C 25.832031 36.183594 26.128906 36.585938 26.398438 37.015625 C 26.464844 37.125 26.535156 37.230469 26.605469 37.335938 C 27.128906 38.117188 27.484375 38.992188 27.808594 39.867188 C 27.863281 40.007812 27.917969 40.148438 27.972656 40.289062 C 28 40.351562 28.023438 40.414062 28.046875 40.476562 C 28.113281 40.636719 28.113281 40.636719 28.308594 40.679688 C 28.425781 40.417969 28.53125 40.152344 28.632812 39.886719 C 28.765625 39.542969 28.902344 39.199219 29.039062 38.855469 C 29.453125 37.828125 29.847656 36.800781 30.234375 35.761719 C 30.289062 35.617188 30.347656 35.472656 30.410156 35.328125 C 30.480469 35.167969 30.539062 35.015625 30.589844 34.847656 C 30.691406 34.539062 30.8125 34.234375 30.9375 33.929688 C 30.957031 33.875 30.980469 33.816406 31 33.761719 C 31.0625 33.617188 31.0625 33.617188 31.1875 33.554688 C 31.308594 33.550781 31.433594 33.550781 31.554688 33.550781 C 31.628906 33.550781 31.699219 33.550781 31.777344 33.550781 C 31.851562 33.550781 31.929688 33.550781 32.007812 33.550781 C 32.085938 33.550781 32.160156 33.550781 32.242188 33.550781 C 32.429688 33.554688 32.621094 33.554688 32.8125 33.554688 C 33 34.003906 33.183594 34.449219 33.347656 34.90625 C 33.476562 35.257812 33.605469 35.605469 33.746094 35.957031 C 33.851562 36.21875 33.953125 36.488281 34.050781 36.753906 C 34.152344 37.027344 34.261719 37.289062 34.375 37.554688 C 34.539062 37.972656 34.695312 38.386719 34.84375 38.8125 C 34.960938 39.148438 35.089844 39.472656 35.230469 39.800781 C 35.4375 40.292969 35.628906 40.792969 35.808594 41.300781 C 35.960938 41.726562 36.121094 42.144531 36.296875 42.5625 C 36.445312 42.910156 36.574219 43.269531 36.703125 43.625 C 36.734375 43.707031 36.769531 43.792969 36.800781 43.875 C 36.824219 43.941406 36.824219 43.941406 36.851562 44.007812 C 36.867188 44.046875 36.878906 44.082031 36.898438 44.125 C 36.945312 44.265625 36.96875 44.414062 37 44.558594 C 36.753906 44.578125 36.503906 44.601562 36.25 44.621094 C 36.328125 44.648438 36.40625 44.675781 36.488281 44.707031 C 37.820312 45.179688 38.851562 45.8125 39.5 47.117188 C 39.53125 47.179688 39.5625 47.238281 39.597656 47.300781 C 40.25 48.625 40.351562 50.175781 40.066406 51.617188 C 40.023438 51.679688 39.980469 51.742188 39.9375 51.804688 C 39.90625 51.929688 39.90625 51.929688 39.878906 52.066406 C 39.71875 52.828125 39.3125 53.628906 38.75 54.179688 C 38.695312 54.203125 38.640625 54.222656 38.582031 54.246094 C 38.511719 54.273438 38.511719 54.273438 38.4375 54.304688 C 38.417969 54.367188 38.394531 54.429688 38.375 54.492188 C 37.65625 55.070312 36.894531 55.398438 35.972656 55.5 C 35.925781 55.503906 35.878906 55.507812 35.828125 55.515625 C 35.308594 55.566406 34.789062 55.574219 34.269531 55.570312 C 34.171875 55.570312 34.070312 55.570312 33.96875 55.570312 C 33.761719 55.570312 33.554688 55.570312 33.347656 55.570312 C 33.082031 55.570312 32.816406 55.570312 32.546875 55.570312 C 32.339844 55.570312 32.136719 55.570312 31.929688 55.570312 C 31.832031 55.570312 31.730469 55.570312 31.632812 55.570312 C 31.496094 55.570312 31.363281 55.570312 31.226562 55.570312 C 31.109375 55.570312 31.109375 55.570312 30.992188 55.570312 C 30.808594 55.554688 30.808594 55.554688 30.683594 55.429688 C 30.671875 55.265625 30.671875 55.265625 30.671875 55.054688 C 30.671875 54.976562 30.671875 54.894531 30.671875 54.816406 C 30.675781 54.726562 30.675781 54.640625 30.675781 54.554688 C 30.675781 54.460938 30.679688 54.371094 30.679688 54.28125 C 30.679688 54.089844 30.679688 53.902344 30.683594 53.710938 C 30.683594 53.445312 30.6875 53.179688 30.6875 52.914062 C 30.691406 51.894531 30.695312 50.867188 30.703125 49.851562 C 30.707031 49.289062 30.710938 48.726562 30.710938 48.164062 C 30.714844 47.761719 30.714844 47.363281 30.71875 46.960938 C 30.71875 46.726562 30.722656 46.488281 30.722656 46.25 C 30.722656 45.988281 30.726562 45.726562 30.726562 45.460938 C 30.726562 45.34375 30.726562 45.34375 30.726562 45.226562 C 30.730469 45.15625 30.730469 45.082031 30.730469 45.011719 C 30.730469 44.949219 30.730469 44.886719 30.730469 44.824219 C 30.746094 44.675781 30.746094 44.675781 30.871094 44.550781 C 31.050781 44.535156 31.050781 44.535156 31.28125 44.539062 C 31.324219 44.539062 31.367188 44.539062 31.410156 44.539062 C 31.550781 44.539062 31.6875 44.539062 31.828125 44.539062 C 31.925781 44.539062 32.019531 44.539062 32.117188 44.539062 C 32.371094 44.539062 32.625 44.542969 32.878906 44.542969 C 33.140625 44.542969 33.398438 44.546875 33.65625 44.546875 C 34.164062 44.546875 34.675781 44.550781 35.179688 44.550781 C 35.113281 44.363281 35.042969 44.175781 34.972656 43.984375 C 34.953125 43.933594 34.933594 43.878906 34.914062 43.824219 C 34.804688 43.519531 34.683594 43.222656 34.554688 42.925781 C 34.5 42.773438 34.441406 42.621094 34.386719 42.46875 C 34.347656 42.355469 34.347656 42.355469 34.304688 42.238281 C 34.242188 42.050781 34.242188 42.050781 34.242188 41.925781 C 34.042969 41.859375 33.902344 41.855469 33.695312 41.855469 C 33.621094 41.855469 33.546875 41.855469 33.46875 41.855469 C 33.386719 41.855469 33.308594 41.855469 33.226562 41.855469 C 33.140625 41.855469 33.058594 41.855469 32.972656 41.855469 C 32.796875 41.855469 32.621094 41.855469 32.445312 41.855469 C 32.222656 41.855469 32 41.855469 31.777344 41.855469 C 31.605469 41.855469 31.433594 41.855469 31.257812 41.855469 C 31.136719 41.855469 31.015625 41.855469 30.890625 41.855469 C 30.464844 41.855469 30.042969 41.871094 29.617188 41.925781 C 29.300781 42.730469 29.011719 43.542969 28.742188 44.363281 C 28.722656 44.425781 28.699219 44.488281 28.679688 44.550781 C 28.679688 44.679688 28.679688 44.8125 28.683594 44.941406 C 28.6875 45.414062 28.640625 45.875 28.574219 46.34375 C 28.5625 46.421875 28.550781 46.503906 28.539062 46.589844 C 28.445312 47.257812 28.304688 47.90625 28.117188 48.550781 C 28.105469 48.59375 28.09375 48.632812 28.082031 48.675781 C 27.972656 49.0625 27.839844 49.429688 27.679688 49.800781 C 27.632812 49.914062 27.632812 49.914062 27.582031 50.03125 C 27.550781 50.105469 27.519531 50.179688 27.488281 50.257812 C 27.441406 50.371094 27.441406 50.371094 27.390625 50.488281 C 27.304688 50.675781 27.304688 50.675781 27.179688 50.800781 C 27.136719 50.921875 27.09375 51.042969 27.046875 51.164062 C 26.953125 51.394531 26.816406 51.59375 26.679688 51.800781 C 26.609375 51.914062 26.535156 52.03125 26.464844 52.144531 C 26.304688 52.398438 26.132812 52.640625 25.953125 52.875 C 25.871094 52.984375 25.796875 53.09375 25.726562 53.207031 C 25.691406 53.257812 25.652344 53.308594 25.617188 53.363281 L 25.492188 53.363281 C 25.472656 53.429688 25.472656 53.429688 25.449219 53.5 C 25.351562 53.710938 25.230469 53.832031 25.054688 53.988281 C 24.992188 54.007812 24.929688 54.027344 24.867188 54.050781 C 24.824219 54.132812 24.78125 54.214844 24.742188 54.300781 C 24.621094 54.449219 24.484375 54.578125 24.347656 54.714844 C 24.308594 54.753906 24.269531 54.792969 24.230469 54.832031 C 21.773438 57.230469 18.0625 58.585938 14.667969 58.574219 C 13.9375 58.5625 13.222656 58.480469 12.503906 58.363281 C 12.457031 58.359375 12.410156 58.351562 12.359375 58.34375 C 11.546875 58.214844 10.753906 58.007812 10.003906 57.679688 C 9.796875 57.601562 9.589844 57.523438 9.382812 57.449219 C 9.203125 57.371094 9.046875 57.28125 8.878906 57.179688 C 8.808594 57.152344 8.742188 57.121094 8.671875 57.089844 C 8.425781 56.988281 8.199219 56.867188 7.96875 56.734375 C 7.90625 56.699219 7.90625 56.699219 7.839844 56.660156 C 7.222656 56.308594 6.632812 55.933594 6.082031 55.484375 C 5.90625 55.339844 5.71875 55.203125 5.527344 55.070312 C 5.5 55.046875 5.472656 55.019531 5.441406 54.992188 L 5.441406 54.867188 C 5.386719 54.847656 5.386719 54.847656 5.332031 54.824219 C 3.894531 54.023438 2.816406 51.859375 2.125 50.429688 C 2.097656 50.367188 2.066406 50.304688 2.035156 50.242188 C 1.859375 49.863281 1.714844 49.476562 1.578125 49.082031 C 1.539062 48.96875 1.5 48.859375 1.457031 48.75 C 1.316406 48.402344 1.246094 48.050781 1.183594 47.683594 C 1.160156 47.566406 1.140625 47.445312 1.117188 47.328125 C 1.109375 47.277344 1.101562 47.226562 1.089844 47.171875 C 1.074219 47.054688 1.074219 47.054688 1.003906 46.992188 C 0.710938 45.410156 0.574219 43.410156 1.128906 41.867188 C 1.175781 41.632812 1.21875 41.398438 1.257812 41.164062 C 1.316406 40.921875 1.398438 40.722656 1.503906 40.492188 C 1.535156 40.402344 1.5625 40.316406 1.59375 40.230469 C 1.609375 40.179688 1.625 40.132812 1.640625 40.082031 C 1.675781 39.976562 1.707031 39.871094 1.738281 39.761719 C 1.902344 39.214844 2.160156 38.730469 2.4375 38.238281 C 2.492188 38.136719 2.550781 38.03125 2.605469 37.925781 C 2.777344 37.597656 2.96875 37.285156 3.167969 36.972656 C 3.191406 36.933594 3.214844 36.898438 3.238281 36.859375 C 3.378906 36.644531 3.527344 36.441406 3.691406 36.246094 C 4.019531 35.84375 4.019531 35.84375 4.316406 35.417969 C 4.460938 35.21875 4.625 35.078125 4.8125 34.921875 C 4.9375 34.8125 5.035156 34.699219 5.136719 34.570312 C 5.457031 34.195312 5.863281 33.914062 6.257812 33.621094 C 6.3125 33.578125 6.371094 33.53125 6.429688 33.488281 C 6.761719 33.238281 7.105469 33.015625 7.457031 32.792969 C 7.496094 32.769531 7.539062 32.742188 7.578125 32.714844 C 7.859375 32.542969 8.148438 32.390625 8.441406 32.246094 C 8.5 32.214844 8.558594 32.1875 8.621094 32.15625 C 13.121094 29.835938 18.433594 30.316406 22.621094 33.125 Z M 22.625 33.125 "/>
<path style=" stroke:none;fill-rule:nonzero;fill:rgb(99.215686%,99.215686%,99.215686%);fill-opacity:1;" d="M 7.875 39.5625 C 7.925781 39.5625 7.980469 39.5625 8.03125 39.5625 C 8.089844 39.5625 8.144531 39.5625 8.203125 39.5625 C 8.265625 39.5625 8.324219 39.5625 8.386719 39.5625 C 8.589844 39.5625 8.796875 39.5625 9 39.5625 C 9.144531 39.5625 9.289062 39.5625 9.4375 39.5625 C 9.832031 39.558594 10.230469 39.558594 10.621094 39.558594 C 10.953125 39.558594 11.285156 39.558594 11.617188 39.558594 C 12.355469 39.558594 13.085938 39.558594 13.824219 39.558594 C 13.867188 39.558594 13.910156 39.558594 13.957031 39.558594 C 14 39.558594 14.046875 39.558594 14.089844 39.558594 C 14.808594 39.558594 15.523438 39.558594 16.242188 39.558594 C 16.976562 39.554688 17.710938 39.554688 18.445312 39.554688 C 18.859375 39.554688 19.273438 39.554688 19.683594 39.554688 C 20.074219 39.554688 20.460938 39.554688 20.847656 39.554688 C 20.988281 39.554688 21.132812 39.554688 21.273438 39.554688 C 21.46875 39.554688 21.664062 39.554688 21.859375 39.554688 C 21.914062 39.554688 21.96875 39.554688 22.027344 39.554688 C 22.425781 39.554688 22.859375 39.566406 23.195312 39.792969 C 23.230469 39.828125 23.261719 39.863281 23.296875 39.902344 C 23.347656 39.957031 23.347656 39.957031 23.398438 40.011719 C 23.582031 40.261719 23.628906 40.492188 23.628906 40.796875 C 23.628906 40.867188 23.628906 40.941406 23.628906 41.011719 C 23.628906 41.128906 23.628906 41.128906 23.628906 41.246094 C 23.628906 41.371094 23.628906 41.371094 23.628906 41.496094 C 23.628906 41.71875 23.628906 41.941406 23.628906 42.164062 C 23.628906 42.398438 23.628906 42.632812 23.628906 42.871094 C 23.628906 43.261719 23.628906 43.65625 23.628906 44.050781 C 23.628906 44.507812 23.628906 44.964844 23.628906 45.414062 C 23.628906 45.804688 23.628906 46.195312 23.628906 46.589844 C 23.628906 46.820312 23.628906 47.054688 23.628906 47.289062 C 23.628906 47.546875 23.628906 47.808594 23.628906 48.070312 C 23.628906 48.148438 23.628906 48.222656 23.628906 48.304688 C 23.628906 48.375 23.628906 48.445312 23.628906 48.519531 C 23.628906 48.613281 23.628906 48.613281 23.628906 48.707031 C 23.597656 49.027344 23.511719 49.273438 23.277344 49.492188 C 22.675781 49.960938 21.5625 49.765625 20.832031 49.761719 C 20.691406 49.761719 20.546875 49.765625 20.40625 49.765625 C 20.023438 49.765625 19.636719 49.765625 19.257812 49.765625 C 19.015625 49.765625 18.777344 49.765625 18.539062 49.765625 C 17.742188 49.765625 16.949219 49.765625 16.148438 49.765625 C 16.105469 49.765625 16.0625 49.765625 16.019531 49.765625 C 15.976562 49.765625 15.933594 49.765625 15.890625 49.765625 C 15.199219 49.765625 14.503906 49.765625 13.808594 49.765625 C 13.097656 49.769531 12.378906 49.769531 11.667969 49.769531 C 11.265625 49.769531 10.867188 49.769531 10.464844 49.769531 C 10.089844 49.769531 9.714844 49.769531 9.335938 49.769531 C 9.195312 49.769531 9.058594 49.769531 8.921875 49.769531 C 8.734375 49.769531 8.542969 49.769531 8.355469 49.769531 C 8.300781 49.769531 8.246094 49.769531 8.191406 49.769531 C 7.796875 49.769531 7.371094 49.753906 7.035156 49.535156 C 7 49.5 6.96875 49.464844 6.933594 49.425781 C 6.902344 49.390625 6.867188 49.355469 6.832031 49.320312 C 6.570312 48.941406 6.597656 48.519531 6.597656 48.078125 C 6.597656 48.003906 6.59375 47.925781 6.59375 47.851562 C 6.59375 47.648438 6.589844 47.445312 6.589844 47.242188 C 6.589844 47.070312 6.585938 46.898438 6.585938 46.730469 C 6.582031 46.324219 6.578125 45.921875 6.574219 45.523438 C 6.574219 45.109375 6.570312 44.699219 6.566406 44.277344 C 6.5625 43.921875 6.558594 43.566406 6.554688 43.210938 C 6.554688 42.996094 6.550781 42.785156 6.550781 42.574219 C 6.546875 42.335938 6.546875 42.097656 6.546875 41.859375 C 6.546875 41.789062 6.542969 41.722656 6.542969 41.652344 C 6.539062 40.375 6.539062 40.375 6.929688 39.945312 C 7.234375 39.6875 7.480469 39.5625 7.882812 39.5625 Z M 7.875 39.5625 "/>
<path style=" stroke:none;fill-rule:nonzero;fill:rgb(0%,0%,0%);fill-opacity:1;" d="M 31.5625 33.5625 C 31.636719 33.5625 31.707031 33.5625 31.785156 33.5625 C 31.859375 33.5625 31.9375 33.5625 32.015625 33.566406 C 32.09375 33.566406 32.167969 33.566406 32.25 33.566406 C 32.4375 33.566406 32.628906 33.566406 32.820312 33.570312 C 33.007812 34.015625 33.191406 34.460938 33.355469 34.917969 C 33.484375 35.269531 33.613281 35.617188 33.753906 35.96875 C 33.859375 36.234375 33.960938 36.5 34.058594 36.769531 C 34.160156 37.039062 34.269531 37.304688 34.382812 37.570312 C 34.546875 37.984375 34.703125 38.398438 34.851562 38.824219 C 34.96875 39.160156 35.097656 39.488281 35.238281 39.8125 C 35.445312 40.308594 35.636719 40.804688 35.816406 41.3125 C 35.96875 41.738281 36.128906 42.15625 36.304688 42.574219 C 36.453125 42.925781 36.582031 43.28125 36.710938 43.636719 C 36.742188 43.722656 36.777344 43.804688 36.808594 43.890625 C 36.832031 43.953125 36.832031 43.953125 36.859375 44.019531 C 36.875 44.058594 36.886719 44.097656 36.902344 44.136719 C 36.949219 44.277344 36.976562 44.425781 37.007812 44.570312 C 36.761719 44.59375 36.511719 44.613281 36.257812 44.632812 C 36.335938 44.664062 36.414062 44.691406 36.496094 44.71875 C 37.828125 45.195312 38.859375 45.824219 39.507812 47.132812 C 39.539062 47.191406 39.570312 47.25 39.605469 47.3125 C 40.257812 48.636719 40.359375 50.1875 40.074219 51.632812 C 40.03125 51.691406 39.988281 51.753906 39.945312 51.820312 C 39.914062 51.945312 39.914062 51.945312 39.886719 52.082031 C 39.726562 52.84375 39.320312 53.644531 38.757812 54.191406 C 38.703125 54.214844 38.648438 54.238281 38.589844 54.257812 C 38.542969 54.277344 38.496094 54.296875 38.445312 54.316406 C 38.425781 54.378906 38.402344 54.441406 38.382812 54.503906 C 37.664062 55.085938 36.902344 55.410156 35.980469 55.511719 C 35.933594 55.515625 35.886719 55.523438 35.835938 55.527344 C 35.316406 55.578125 34.796875 55.585938 34.277344 55.582031 C 34.179688 55.582031 34.078125 55.582031 33.976562 55.582031 C 33.769531 55.585938 33.5625 55.582031 33.355469 55.582031 C 33.089844 55.582031 32.820312 55.582031 32.554688 55.582031 C 32.347656 55.585938 32.144531 55.585938 31.9375 55.582031 C 31.839844 55.582031 31.738281 55.582031 31.640625 55.585938 C 31.503906 55.585938 31.371094 55.582031 31.234375 55.582031 C 31.117188 55.582031 31.117188 55.582031 31 55.582031 C 30.816406 55.566406 30.816406 55.566406 30.691406 55.441406 C 30.679688 55.277344 30.679688 55.277344 30.679688 55.066406 C 30.679688 54.988281 30.679688 54.910156 30.679688 54.828125 C 30.683594 54.742188 30.683594 54.652344 30.683594 54.566406 C 30.683594 54.476562 30.6875 54.386719 30.6875 54.292969 C 30.6875 54.105469 30.6875 53.914062 30.691406 53.726562 C 30.691406 53.457031 30.695312 53.191406 30.695312 52.925781 C 30.699219 51.90625 30.703125 50.882812 30.710938 49.863281 C 30.714844 49.300781 30.71875 48.738281 30.71875 48.175781 C 30.722656 47.777344 30.722656 47.375 30.726562 46.976562 C 30.726562 46.738281 30.730469 46.5 30.730469 46.261719 C 30.730469 46 30.734375 45.738281 30.734375 45.476562 C 30.734375 45.398438 30.734375 45.320312 30.734375 45.238281 C 30.738281 45.167969 30.738281 45.097656 30.738281 45.023438 C 30.738281 44.929688 30.738281 44.929688 30.738281 44.835938 C 30.753906 44.691406 30.753906 44.691406 30.878906 44.566406 C 31.058594 44.550781 31.058594 44.550781 31.289062 44.550781 C 31.332031 44.550781 31.375 44.550781 31.417969 44.550781 C 31.558594 44.550781 31.695312 44.550781 31.835938 44.554688 C 31.933594 44.554688 32.027344 44.554688 32.125 44.554688 C 32.378906 44.554688 32.632812 44.554688 32.886719 44.554688 C 33.148438 44.558594 33.40625 44.558594 33.664062 44.558594 C 34.171875 44.558594 34.683594 44.5625 35.1875 44.566406 C 35.121094 44.375 35.050781 44.1875 34.980469 44 C 34.960938 43.945312 34.941406 43.890625 34.921875 43.835938 C 34.8125 43.535156 34.691406 43.234375 34.5625 42.9375 C 34.507812 42.785156 34.449219 42.632812 34.394531 42.480469 C 34.367188 42.40625 34.339844 42.328125 34.3125 42.25 C 34.25 42.0625 34.25 42.0625 34.25 41.9375 C 34.050781 41.871094 33.910156 41.867188 33.703125 41.867188 C 33.628906 41.867188 33.554688 41.867188 33.476562 41.867188 C 33.394531 41.867188 33.316406 41.867188 33.234375 41.867188 C 33.148438 41.867188 33.066406 41.867188 32.980469 41.867188 C 32.804688 41.867188 32.628906 41.867188 32.453125 41.867188 C 32.230469 41.867188 32.007812 41.867188 31.785156 41.867188 C 31.613281 41.867188 31.441406 41.867188 31.265625 41.867188 C 31.144531 41.867188 31.023438 41.867188 30.898438 41.867188 C 30.472656 41.867188 30.050781 41.882812 29.625 41.9375 C 29.335938 42.667969 29.070312 43.40625 28.824219 44.148438 C 28.75 44.371094 28.75 44.371094 28.6875 44.496094 C 28.109375 44.519531 27.53125 44.539062 26.9375 44.558594 C 27.007812 44 27.007812 44 27.101562 43.773438 C 27.125 43.722656 27.144531 43.671875 27.164062 43.621094 C 27.199219 43.542969 27.199219 43.542969 27.230469 43.464844 C 27.277344 43.355469 27.324219 43.242188 27.367188 43.132812 C 27.390625 43.078125 27.414062 43.023438 27.4375 42.96875 C 27.675781 42.390625 27.902344 41.8125 28.117188 41.230469 C 28.222656 40.953125 28.328125 40.679688 28.4375 40.40625 C 28.507812 40.230469 28.574219 40.058594 28.640625 39.886719 C 28.769531 39.542969 28.90625 39.203125 29.042969 38.867188 C 29.457031 37.839844 29.847656 36.808594 30.238281 35.773438 C 30.292969 35.625 30.351562 35.484375 30.414062 35.339844 C 30.480469 35.179688 30.539062 35.027344 30.59375 34.859375 C 30.691406 34.546875 30.816406 34.246094 30.941406 33.941406 C 30.960938 33.886719 30.980469 33.828125 31 33.769531 C 31.117188 33.511719 31.300781 33.558594 31.558594 33.5625 Z M 31.5625 33.5625 "/>
<path style=" stroke:none;fill-rule:nonzero;fill:rgb(0%,0%,0%);fill-opacity:1;" d="M 39.3125 33.5 C 39.398438 33.5 39.480469 33.5 39.566406 33.5 C 39.613281 33.5 39.660156 33.5 39.707031 33.5 C 39.863281 33.5 40.015625 33.5 40.171875 33.503906 C 40.277344 33.503906 40.386719 33.503906 40.492188 33.503906 C 40.71875 33.503906 40.941406 33.507812 41.167969 33.507812 C 41.453125 33.511719 41.742188 33.511719 42.027344 33.511719 C 42.25 33.511719 42.472656 33.511719 42.699219 33.515625 C 42.804688 33.515625 42.910156 33.515625 43.015625 33.515625 C 44.257812 33.519531 45.289062 33.722656 46.203125 34.628906 C 46.746094 35.21875 47.066406 35.929688 47.109375 36.726562 C 47.113281 36.820312 47.113281 36.820312 47.121094 36.917969 C 47.136719 37.523438 47.066406 38.085938 46.734375 38.605469 C 46.703125 38.652344 46.675781 38.699219 46.644531 38.746094 C 46.464844 39.023438 46.292969 39.261719 46.046875 39.480469 C 46.011719 39.511719 45.972656 39.546875 45.9375 39.582031 C 45.632812 39.855469 45.632812 39.855469 45.421875 39.855469 C 45.390625 39.949219 45.390625 39.949219 45.359375 40.042969 C 45.265625 40.074219 45.265625 40.074219 45.171875 40.105469 C 45.085938 40.296875 45.085938 40.296875 45.199219 40.480469 C 45.242188 40.554688 45.285156 40.628906 45.332031 40.703125 C 45.355469 40.742188 45.378906 40.78125 45.402344 40.820312 C 45.472656 40.933594 45.539062 41.050781 45.609375 41.167969 C 45.644531 41.226562 45.679688 41.28125 45.714844 41.34375 C 45.777344 41.445312 45.839844 41.546875 45.898438 41.648438 C 46.007812 41.832031 46.109375 42.015625 46.214844 42.203125 C 46.441406 42.613281 46.679688 43.015625 46.925781 43.417969 C 47.132812 43.757812 47.335938 44.109375 47.484375 44.480469 C 47.464844 44.519531 47.445312 44.5625 47.421875 44.605469 L 47.296875 44.605469 C 47.296875 44.65625 47.300781 44.703125 47.300781 44.757812 C 47.304688 45.207031 47.304688 45.65625 47.234375 46.101562 C 47.214844 46.121094 47.195312 46.140625 47.171875 46.164062 L 45.484375 46.164062 C 45.503906 48.699219 45.527344 51.238281 45.546875 53.851562 C 45.972656 53.902344 45.972656 53.902344 46.398438 53.933594 C 46.441406 53.9375 46.488281 53.9375 46.539062 53.941406 C 46.605469 53.945312 46.605469 53.945312 46.675781 53.949219 C 46.726562 53.953125 46.773438 53.953125 46.820312 53.957031 C 46.9375 53.964844 47.054688 53.96875 47.171875 53.976562 C 47.25 54.132812 47.242188 54.238281 47.242188 54.410156 C 47.242188 54.472656 47.242188 54.535156 47.242188 54.597656 C 47.242188 54.664062 47.242188 54.726562 47.242188 54.792969 C 47.242188 54.855469 47.242188 54.921875 47.242188 54.988281 C 47.242188 55.082031 47.242188 55.082031 47.242188 55.175781 C 47.242188 55.230469 47.242188 55.289062 47.242188 55.34375 C 47.234375 55.476562 47.234375 55.476562 47.171875 55.539062 C 47.015625 55.546875 46.859375 55.546875 46.703125 55.546875 C 46.652344 55.546875 46.605469 55.546875 46.554688 55.550781 C 46.390625 55.550781 46.226562 55.550781 46.0625 55.550781 C 45.949219 55.550781 45.835938 55.550781 45.722656 55.550781 C 45.484375 55.550781 45.25 55.550781 45.011719 55.550781 C 44.707031 55.550781 44.402344 55.550781 44.097656 55.550781 C 43.863281 55.554688 43.632812 55.554688 43.398438 55.554688 C 43.285156 55.554688 43.171875 55.554688 43.0625 55.554688 C 42.90625 55.554688 42.746094 55.554688 42.589844 55.554688 C 42.542969 55.554688 42.496094 55.554688 42.449219 55.554688 C 42.125 55.554688 42.125 55.554688 41.988281 55.414062 C 41.957031 55.199219 41.960938 54.980469 41.960938 54.765625 C 41.957031 54.703125 41.957031 54.644531 41.953125 54.582031 C 41.953125 54.523438 41.953125 54.464844 41.953125 54.40625 C 41.949219 54.351562 41.949219 54.300781 41.949219 54.242188 C 41.988281 54.105469 41.988281 54.105469 42.125 54.003906 C 42.316406 53.910156 42.429688 53.894531 42.644531 53.898438 C 42.707031 53.898438 42.773438 53.898438 42.839844 53.898438 C 42.90625 53.902344 42.96875 53.902344 43.039062 53.90625 C 43.105469 53.90625 43.171875 53.90625 43.242188 53.90625 C 43.40625 53.910156 43.574219 53.914062 43.738281 53.917969 C 43.738281 53.230469 43.738281 52.542969 43.742188 51.847656 C 43.742188 51.527344 43.742188 51.210938 43.742188 50.886719 C 43.746094 49.328125 43.734375 47.777344 43.675781 46.222656 C 43.625 46.222656 43.574219 46.21875 43.519531 46.21875 C 43.382812 46.214844 43.242188 46.210938 43.101562 46.207031 C 42.953125 46.199219 42.804688 46.195312 42.65625 46.191406 C 42.5625 46.191406 42.5625 46.191406 42.464844 46.1875 C 42.402344 46.183594 42.335938 46.183594 42.269531 46.179688 C 42.113281 46.160156 42.113281 46.160156 41.988281 46.035156 C 41.972656 45.898438 41.972656 45.898438 41.96875 45.726562 C 41.96875 45.632812 41.96875 45.632812 41.96875 45.542969 C 41.96875 45.476562 41.972656 45.414062 41.972656 45.347656 C 41.972656 45.25 41.972656 45.25 41.96875 45.152344 C 41.96875 45.09375 41.96875 45.03125 41.96875 44.96875 C 41.972656 44.914062 41.972656 44.855469 41.972656 44.800781 C 41.988281 44.660156 41.988281 44.660156 42.113281 44.535156 C 42.226562 44.519531 42.226562 44.519531 42.371094 44.519531 C 42.449219 44.519531 42.449219 44.519531 42.53125 44.519531 C 42.617188 44.519531 42.617188 44.519531 42.707031 44.519531 C 42.796875 44.519531 42.796875 44.519531 42.886719 44.519531 C 43.011719 44.523438 43.140625 44.523438 43.265625 44.523438 C 43.457031 44.523438 43.648438 44.523438 43.84375 44.523438 C 43.964844 44.523438 44.085938 44.523438 44.210938 44.527344 C 44.265625 44.527344 44.324219 44.527344 44.382812 44.527344 C 44.734375 44.527344 45.078125 44.554688 45.425781 44.597656 C 45.28125 44.242188 45.109375 43.910156 44.921875 43.574219 C 44.890625 43.519531 44.863281 43.464844 44.832031 43.40625 C 44.613281 43.015625 44.390625 42.632812 44.164062 42.25 C 43.949219 41.894531 43.746094 41.53125 43.546875 41.167969 C 43.515625 41.117188 43.488281 41.0625 43.457031 41.003906 C 43.429688 40.957031 43.402344 40.90625 43.371094 40.851562 C 43.335938 40.785156 43.335938 40.785156 43.296875 40.71875 C 43.238281 40.597656 43.238281 40.597656 43.175781 40.410156 C 42.839844 40.417969 42.5 40.425781 42.164062 40.433594 C 42.046875 40.4375 41.933594 40.441406 41.820312 40.441406 C 41.65625 40.445312 41.488281 40.449219 41.324219 40.453125 C 41.246094 40.457031 41.246094 40.457031 41.167969 40.457031 C 40.933594 40.441406 40.933594 40.441406 40.738281 40.535156 C 40.730469 40.660156 40.726562 40.78125 40.726562 40.902344 C 40.722656 40.984375 40.722656 41.0625 40.722656 41.140625 C 40.722656 41.183594 40.722656 41.226562 40.71875 41.269531 C 40.71875 41.402344 40.71875 41.535156 40.714844 41.664062 C 40.710938 41.945312 40.707031 42.226562 40.707031 42.503906 C 40.703125 42.828125 40.699219 43.152344 40.695312 43.480469 C 40.691406 43.609375 40.691406 43.738281 40.6875 43.871094 C 40.6875 43.949219 40.6875 44.027344 40.6875 44.105469 C 40.683594 44.210938 40.683594 44.210938 40.683594 44.320312 C 40.675781 44.476562 40.675781 44.476562 40.613281 44.539062 C 40.351562 44.554688 40.09375 44.550781 39.835938 44.550781 C 39.765625 44.550781 39.691406 44.550781 39.613281 44.550781 C 39.546875 44.550781 39.476562 44.550781 39.402344 44.550781 C 39.308594 44.554688 39.308594 44.554688 39.207031 44.554688 C 39.050781 44.539062 39.050781 44.539062 38.925781 44.414062 C 38.910156 44.234375 38.910156 44.234375 38.910156 44 C 38.910156 43.957031 38.910156 43.914062 38.910156 43.867188 C 38.910156 43.722656 38.910156 43.578125 38.910156 43.433594 C 38.910156 43.332031 38.910156 43.226562 38.910156 43.125 C 38.90625 42.839844 38.90625 42.558594 38.90625 42.28125 C 38.910156 42.046875 38.90625 41.808594 38.90625 41.574219 C 38.90625 41.019531 38.90625 40.460938 38.90625 39.910156 C 38.90625 39.339844 38.90625 38.765625 38.90625 38.191406 C 38.902344 37.699219 38.902344 37.210938 38.902344 36.71875 C 38.902344 36.421875 38.902344 36.128906 38.902344 35.835938 C 38.902344 35.558594 38.902344 35.285156 38.902344 35.003906 C 38.902344 34.902344 38.902344 34.800781 38.902344 34.699219 C 38.902344 34.5625 38.902344 34.421875 38.902344 34.285156 C 38.902344 34.207031 38.902344 34.128906 38.902344 34.050781 C 38.9375 33.742188 39 33.558594 39.316406 33.496094 Z M 39.3125 33.5 "/>
<path style=" stroke:none;fill-rule:nonzero;fill:rgb(0%,0%,0%);fill-opacity:1;" d="M 96.875 34.3125 C 96.941406 34.351562 96.941406 34.351562 97.007812 34.390625 C 97.109375 34.457031 97.109375 34.457031 97.25 34.5625 L 97.25 34.6875 C 97.296875 34.703125 97.34375 34.714844 97.390625 34.730469 C 97.597656 34.828125 97.683594 34.9375 97.8125 35.125 L 97.8125 35.25 L 97.9375 35.25 C 98.027344 35.375 98.109375 35.496094 98.1875 35.625 C 98.226562 35.691406 98.269531 35.757812 98.308594 35.824219 C 98.71875 36.519531 99.011719 37.199219 99.121094 38 C 99.132812 38.058594 99.144531 38.121094 99.15625 38.183594 C 99.289062 38.882812 99.253906 39.492188 99.121094 40.183594 C 99.109375 40.269531 99.09375 40.351562 99.082031 40.4375 C 98.949219 41.230469 98.949219 41.230469 98.757812 41.5625 C 98.621094 41.792969 98.515625 42.042969 98.402344 42.285156 C 98.308594 42.4375 98.308594 42.4375 98.121094 42.5 C 98.105469 42.546875 98.089844 42.589844 98.074219 42.632812 C 97.960938 42.898438 97.765625 43.058594 97.558594 43.25 C 97.496094 43.3125 97.496094 43.3125 97.433594 43.378906 C 96.386719 44.421875 95.058594 44.710938 93.636719 44.703125 C 93.128906 44.695312 92.660156 44.679688 92.183594 44.5 C 92.109375 44.472656 92.035156 44.445312 91.957031 44.417969 C 91.683594 44.316406 91.433594 44.183594 91.179688 44.039062 C 91.136719 44.015625 91.097656 43.992188 91.054688 43.96875 C 89.867188 43.292969 89.007812 42.164062 88.640625 40.84375 C 88.214844 39.105469 88.417969 37.394531 89.335938 35.84375 C 89.457031 35.640625 89.574219 35.472656 89.746094 35.308594 C 89.8125 35.230469 89.882812 35.148438 89.953125 35.066406 C 91.722656 33.042969 94.703125 32.992188 96.890625 34.3125 Z M 96.875 34.3125 "/>
<path style=" stroke:none;fill-rule:nonzero;fill:rgb(0%,0%,0%);fill-opacity:1;" d="M 49.25 33.5625 C 49.316406 33.5625 49.378906 33.5625 49.449219 33.5625 C 49.519531 33.5625 49.589844 33.5625 49.664062 33.5625 C 49.742188 33.5625 49.816406 33.5625 49.894531 33.5625 C 50.101562 33.5625 50.308594 33.5625 50.515625 33.5625 C 50.730469 33.5625 50.949219 33.5625 51.164062 33.5625 C 51.527344 33.5625 51.890625 33.5625 52.257812 33.5625 C 52.679688 33.5625 53.101562 33.5625 53.519531 33.5625 C 53.882812 33.5625 54.238281 33.5625 54.601562 33.5625 C 54.816406 33.5625 55.035156 33.5625 55.253906 33.5625 C 55.492188 33.5625 55.734375 33.5625 55.972656 33.5625 C 56.078125 33.5625 56.078125 33.5625 56.1875 33.5625 C 56.285156 33.5625 56.285156 33.5625 56.386719 33.5625 C 56.441406 33.5625 56.5 33.5625 56.558594 33.5625 C 56.695312 33.578125 56.695312 33.578125 56.820312 33.703125 C 56.835938 33.855469 56.835938 33.855469 56.835938 34.042969 C 56.835938 34.109375 56.835938 34.175781 56.832031 34.246094 C 56.832031 34.3125 56.832031 34.386719 56.832031 34.457031 C 56.832031 34.5625 56.832031 34.5625 56.832031 34.671875 C 56.828125 35.195312 56.828125 35.195312 56.757812 35.265625 C 55.746094 35.285156 54.738281 35.308594 53.695312 35.328125 L 53.695312 44.578125 C 53.777344 44.558594 53.859375 44.535156 53.945312 44.515625 C 55.039062 44.453125 56.136719 44.433594 57.132812 44.953125 C 57.1875 44.980469 57.242188 45.007812 57.296875 45.035156 C 57.871094 45.339844 58.527344 45.679688 58.859375 46.253906 C 58.878906 46.449219 58.878906 46.449219 58.808594 46.570312 C 58.710938 46.6875 58.617188 46.792969 58.503906 46.886719 L 58.378906 46.886719 C 58.363281 46.929688 58.34375 46.96875 58.328125 47.007812 C 58.253906 47.136719 58.253906 47.136719 58.066406 47.199219 C 57.992188 47.324219 57.992188 47.324219 57.941406 47.449219 C 57.664062 47.371094 57.484375 47.277344 57.265625 47.085938 C 56.984375 46.855469 56.714844 46.664062 56.378906 46.511719 C 56.324219 46.488281 56.273438 46.464844 56.214844 46.4375 C 55.390625 46.125 54.265625 46.117188 53.441406 46.425781 C 52.589844 46.8125 52.589844 46.8125 51.941406 47.449219 L 51.816406 47.449219 C 51.800781 47.484375 51.785156 47.515625 51.769531 47.550781 C 51.691406 47.699219 51.691406 47.699219 51.578125 47.855469 C 50.96875 48.769531 50.820312 49.949219 51.019531 51.007812 C 51.230469 51.875 51.710938 52.550781 52.382812 53.136719 C 52.46875 53.1875 52.46875 53.1875 52.558594 53.242188 C 52.601562 53.269531 52.648438 53.296875 52.695312 53.324219 L 52.695312 53.449219 C 52.769531 53.472656 52.769531 53.472656 52.851562 53.496094 C 53.015625 53.558594 53.148438 53.617188 53.304688 53.699219 C 53.550781 53.828125 53.792969 53.882812 54.066406 53.925781 C 54.191406 53.949219 54.191406 53.949219 54.253906 54.011719 C 55.246094 54.078125 56.171875 53.996094 57.003906 53.386719 C 57.070312 53.339844 57.070312 53.339844 57.140625 53.289062 C 57.488281 53.019531 57.703125 52.691406 57.816406 52.265625 C 57.820312 52.167969 57.820312 52.070312 57.820312 51.972656 C 57.820312 51.921875 57.820312 51.871094 57.816406 51.820312 C 57.816406 51.78125 57.816406 51.742188 57.816406 51.703125 C 57.761719 51.703125 57.761719 51.703125 57.707031 51.703125 C 57.328125 51.695312 56.949219 51.691406 56.566406 51.683594 C 56.425781 51.679688 56.285156 51.679688 56.144531 51.675781 C 55.941406 51.675781 55.738281 51.671875 55.535156 51.667969 C 55.46875 51.667969 55.40625 51.664062 55.339844 51.664062 C 55.28125 51.664062 55.222656 51.664062 55.164062 51.660156 C 55.113281 51.660156 55.058594 51.660156 55.003906 51.660156 C 54.878906 51.640625 54.878906 51.640625 54.753906 51.515625 C 54.722656 51.277344 54.730469 51.039062 54.730469 50.804688 C 54.730469 50.703125 54.730469 50.703125 54.726562 50.601562 C 54.726562 50.539062 54.726562 50.476562 54.726562 50.410156 C 54.726562 50.351562 54.726562 50.292969 54.722656 50.230469 C 54.753906 50.082031 54.753906 50.082031 54.855469 49.980469 C 55.054688 49.863281 55.203125 49.871094 55.4375 49.871094 C 55.480469 49.871094 55.523438 49.871094 55.566406 49.871094 C 55.710938 49.871094 55.851562 49.871094 55.992188 49.871094 C 56.09375 49.871094 56.191406 49.871094 56.289062 49.871094 C 56.496094 49.875 56.703125 49.875 56.910156 49.875 C 57.175781 49.878906 57.441406 49.878906 57.703125 49.878906 C 57.90625 49.878906 58.109375 49.878906 58.316406 49.878906 C 58.414062 49.878906 58.511719 49.878906 58.609375 49.878906 C 58.746094 49.882812 58.882812 49.882812 59.015625 49.882812 C 59.09375 49.882812 59.171875 49.882812 59.253906 49.882812 C 59.441406 49.894531 59.441406 49.894531 59.628906 49.957031 C 59.871094 50.503906 59.765625 51.179688 59.699219 51.753906 C 59.691406 51.824219 59.691406 51.824219 59.683594 51.890625 C 59.632812 52.324219 59.488281 52.683594 59.316406 53.078125 C 59.273438 53.183594 59.234375 53.285156 59.191406 53.390625 L 59.066406 53.390625 C 59.058594 53.460938 59.058594 53.460938 59.046875 53.53125 C 59 53.726562 58.9375 53.808594 58.800781 53.953125 C 58.761719 53.996094 58.722656 54.039062 58.679688 54.085938 C 58.644531 54.125 58.605469 54.164062 58.566406 54.203125 C 58.515625 54.257812 58.460938 54.3125 58.40625 54.371094 C 57.761719 54.980469 57.070312 55.410156 56.195312 55.578125 C 56.132812 55.601562 56.070312 55.621094 56.007812 55.644531 C 55.652344 55.746094 55.28125 55.726562 54.917969 55.726562 C 54.839844 55.726562 54.761719 55.726562 54.683594 55.726562 C 54.085938 55.71875 53.570312 55.652344 53.007812 55.453125 C 52.949219 55.433594 52.890625 55.414062 52.832031 55.394531 C 52.496094 55.273438 52.199219 55.105469 51.898438 54.917969 C 51.78125 54.84375 51.660156 54.777344 51.539062 54.714844 C 50.835938 54.316406 50.199219 53.597656 49.820312 52.890625 C 49.796875 52.851562 49.773438 52.808594 49.75 52.769531 C 49.605469 52.496094 49.507812 52.21875 49.425781 51.917969 C 49.394531 51.808594 49.355469 51.695312 49.316406 51.585938 C 49.085938 50.84375 49.101562 50.054688 49.179688 49.285156 C 49.1875 49.242188 49.191406 49.199219 49.195312 49.152344 C 49.230469 48.832031 49.320312 48.558594 49.441406 48.265625 C 49.46875 48.199219 49.492188 48.136719 49.519531 48.070312 C 49.671875 47.691406 49.84375 47.351562 50.066406 47.011719 C 50.117188 46.929688 50.117188 46.929688 50.164062 46.839844 C 50.265625 46.6875 50.375 46.578125 50.503906 46.449219 C 50.613281 46.316406 50.613281 46.316406 50.722656 46.179688 C 51.296875 45.558594 52.140625 45.023438 52.941406 44.761719 C 52.960938 44.71875 52.980469 44.679688 53.003906 44.636719 C 52.898438 44.632812 52.898438 44.632812 52.789062 44.625 C 52.695312 44.621094 52.605469 44.617188 52.511719 44.613281 C 52.464844 44.609375 52.417969 44.609375 52.371094 44.605469 C 52.015625 44.585938 52.015625 44.585938 51.878906 44.449219 C 51.863281 44.289062 51.863281 44.289062 51.859375 44.085938 C 51.859375 44.011719 51.859375 43.933594 51.859375 43.855469 C 51.859375 43.769531 51.859375 43.683594 51.859375 43.597656 C 51.859375 43.507812 51.859375 43.417969 51.855469 43.328125 C 51.855469 43.082031 51.855469 42.835938 51.851562 42.59375 C 51.851562 42.339844 51.851562 42.085938 51.847656 41.828125 C 51.847656 41.34375 51.84375 40.859375 51.839844 40.375 C 51.839844 39.824219 51.835938 39.277344 51.832031 38.726562 C 51.828125 37.59375 51.820312 36.457031 51.816406 35.328125 C 51.78125 35.324219 51.746094 35.324219 51.707031 35.324219 C 51.335938 35.320312 50.964844 35.3125 50.59375 35.308594 C 50.457031 35.304688 50.320312 35.300781 50.179688 35.300781 C 49.980469 35.296875 49.78125 35.292969 49.582031 35.289062 C 49.519531 35.289062 49.457031 35.289062 49.394531 35.289062 C 49.335938 35.285156 49.277344 35.285156 49.21875 35.285156 C 49.167969 35.28125 49.117188 35.28125 49.066406 35.28125 C 48.941406 35.265625 48.941406 35.265625 48.816406 35.140625 C 48.800781 34.996094 48.800781 34.996094 48.800781 34.816406 C 48.800781 34.753906 48.800781 34.6875 48.800781 34.621094 C 48.800781 34.523438 48.800781 34.523438 48.800781 34.417969 C 48.800781 34.351562 48.800781 34.285156 48.800781 34.214844 C 48.800781 34.152344 48.800781 34.089844 48.800781 34.023438 C 48.800781 33.964844 48.800781 33.90625 48.800781 33.84375 C 48.832031 33.554688 49 33.558594 49.25 33.558594 Z M 49.25 33.5625 "/>
<path style=" stroke:none;fill-rule:nonzero;fill:rgb(0%,0%,0%);fill-opacity:1;" d="M 59.25 33.5625 C 59.304688 33.5625 59.363281 33.5625 59.421875 33.5625 C 59.480469 33.5625 59.542969 33.5625 59.609375 33.5625 C 59.671875 33.5625 59.738281 33.5625 59.804688 33.5625 C 60.019531 33.5625 60.238281 33.5625 60.453125 33.5625 C 60.605469 33.5625 60.753906 33.5625 60.902344 33.5625 C 61.21875 33.5625 61.527344 33.5625 61.847656 33.5625 C 62.25 33.5625 62.652344 33.5625 63.054688 33.5625 C 63.363281 33.5625 63.671875 33.5625 63.976562 33.5625 C 64.125 33.5625 64.273438 33.5625 64.421875 33.5625 C 64.632812 33.5625 64.839844 33.5625 65.046875 33.5625 C 65.140625 33.5625 65.140625 33.5625 65.234375 33.5625 C 65.316406 33.5625 65.316406 33.5625 65.402344 33.5625 C 65.453125 33.5625 65.5 33.5625 65.550781 33.5625 C 65.671875 33.578125 65.671875 33.578125 65.796875 33.703125 C 65.8125 33.855469 65.8125 33.855469 65.8125 34.042969 C 65.8125 34.109375 65.8125 34.175781 65.8125 34.246094 C 65.808594 34.3125 65.808594 34.386719 65.808594 34.457031 C 65.808594 34.5625 65.808594 34.5625 65.808594 34.671875 C 65.804688 35.195312 65.804688 35.195312 65.734375 35.265625 C 65.578125 35.273438 65.421875 35.277344 65.261719 35.277344 C 65.210938 35.277344 65.164062 35.28125 65.113281 35.28125 C 64.949219 35.28125 64.785156 35.285156 64.621094 35.285156 C 64.507812 35.285156 64.394531 35.289062 64.28125 35.289062 C 63.980469 35.292969 63.683594 35.296875 63.382812 35.300781 C 63.023438 35.300781 62.664062 35.308594 62.304688 35.3125 C 61.761719 35.316406 61.21875 35.324219 60.667969 35.328125 C 60.648438 36.214844 60.628906 37.101562 60.605469 38.015625 C 60.832031 38.074219 61 38.085938 61.230469 38.082031 C 61.304688 38.082031 61.382812 38.082031 61.460938 38.082031 C 61.539062 38.078125 61.621094 38.078125 61.707031 38.078125 C 61.789062 38.078125 61.875 38.078125 61.960938 38.074219 C 62.316406 38.074219 62.679688 38.070312 63.035156 38.066406 C 63.253906 38.066406 63.472656 38.0625 63.691406 38.0625 C 63.816406 38.0625 63.9375 38.0625 64.0625 38.058594 C 64.136719 38.058594 64.214844 38.058594 64.292969 38.058594 C 64.390625 38.058594 64.390625 38.058594 64.492188 38.054688 C 64.691406 38.082031 64.773438 38.128906 64.914062 38.265625 C 64.945312 38.417969 64.945312 38.417969 64.941406 38.597656 C 64.941406 38.691406 64.941406 38.691406 64.941406 38.789062 C 64.9375 38.855469 64.9375 38.921875 64.933594 38.992188 C 64.933594 39.058594 64.933594 39.125 64.933594 39.195312 C 64.925781 39.691406 64.925781 39.691406 64.851562 39.765625 C 64.722656 39.773438 64.589844 39.777344 64.457031 39.777344 C 64.414062 39.777344 64.371094 39.78125 64.332031 39.78125 C 64.191406 39.78125 64.054688 39.785156 63.917969 39.785156 C 63.824219 39.785156 63.726562 39.789062 63.632812 39.789062 C 63.378906 39.792969 63.128906 39.796875 62.882812 39.800781 C 62.582031 39.800781 62.28125 39.808594 61.980469 39.8125 C 61.523438 39.816406 61.070312 39.824219 60.605469 39.828125 C 60.628906 40.816406 60.648438 41.808594 60.667969 42.828125 C 61.183594 42.832031 61.183594 42.832031 61.714844 42.835938 C 61.929688 42.835938 62.148438 42.839844 62.371094 42.839844 C 62.714844 42.84375 63.0625 42.847656 63.40625 42.851562 C 63.6875 42.851562 63.964844 42.855469 64.246094 42.855469 C 64.351562 42.859375 64.457031 42.859375 64.5625 42.859375 C 64.710938 42.859375 64.859375 42.863281 65.007812 42.863281 C 65.054688 42.863281 65.097656 42.863281 65.144531 42.863281 C 65.414062 42.867188 65.585938 42.910156 65.800781 43.078125 C 65.839844 43.230469 65.839844 43.230469 65.84375 43.410156 C 65.847656 43.507812 65.847656 43.507812 65.847656 43.605469 C 65.847656 43.671875 65.847656 43.738281 65.851562 43.808594 C 65.851562 43.875 65.851562 43.945312 65.855469 44.015625 C 65.859375 44.179688 65.859375 44.347656 65.863281 44.515625 C 65.949219 44.519531 65.949219 44.519531 66.039062 44.523438 C 66.113281 44.53125 66.1875 44.535156 66.265625 44.539062 C 66.375 44.546875 66.375 44.546875 66.492188 44.550781 C 66.550781 44.5625 66.613281 44.570312 66.675781 44.578125 C 66.753906 44.738281 66.746094 44.851562 66.746094 45.027344 C 66.746094 45.09375 66.746094 45.15625 66.746094 45.222656 C 66.746094 45.289062 66.746094 45.355469 66.746094 45.425781 C 66.746094 45.492188 66.746094 45.5625 66.746094 45.628906 C 66.746094 45.695312 66.746094 45.757812 66.746094 45.824219 C 66.746094 45.882812 66.746094 45.941406 66.746094 46.003906 C 66.738281 46.140625 66.738281 46.140625 66.675781 46.203125 C 66.136719 46.222656 65.597656 46.246094 65.050781 46.265625 L 65.050781 53.890625 C 65.460938 53.910156 65.875 53.933594 66.300781 53.953125 C 66.421875 53.972656 66.546875 53.996094 66.675781 54.015625 C 66.765625 54.203125 66.761719 54.378906 66.773438 54.585938 C 66.78125 54.664062 66.785156 54.746094 66.792969 54.828125 C 66.800781 55.089844 66.769531 55.320312 66.734375 55.578125 C 66.066406 55.582031 65.40625 55.582031 64.734375 55.585938 C 64.425781 55.585938 64.117188 55.585938 63.8125 55.589844 C 63.511719 55.589844 63.214844 55.589844 62.917969 55.589844 C 62.804688 55.589844 62.6875 55.589844 62.574219 55.589844 C 62.417969 55.59375 62.257812 55.59375 62.097656 55.59375 C 62.050781 55.59375 62.003906 55.59375 61.953125 55.59375 C 61.628906 55.59375 61.628906 55.59375 61.488281 55.453125 C 61.457031 55.238281 61.460938 55.019531 61.460938 54.804688 C 61.460938 54.742188 61.457031 54.683594 61.453125 54.621094 C 61.453125 54.5625 61.453125 54.503906 61.453125 54.445312 C 61.453125 54.390625 61.453125 54.339844 61.453125 54.285156 C 61.488281 54.144531 61.488281 54.144531 61.625 54.042969 C 61.816406 53.949219 61.933594 53.933594 62.144531 53.9375 C 62.210938 53.9375 62.273438 53.9375 62.339844 53.941406 C 62.40625 53.941406 62.472656 53.941406 62.539062 53.945312 C 62.605469 53.945312 62.675781 53.945312 62.742188 53.945312 C 62.910156 53.949219 63.074219 53.953125 63.238281 53.957031 C 63.246094 52.054688 63.238281 50.148438 63.207031 48.25 C 63.207031 48.199219 63.207031 48.152344 63.207031 48.101562 C 63.195312 47.488281 63.1875 46.882812 63.175781 46.269531 C 63.128906 46.265625 63.082031 46.265625 63.035156 46.265625 C 62.824219 46.257812 62.613281 46.253906 62.40625 46.246094 C 62.332031 46.242188 62.257812 46.242188 62.183594 46.238281 C 62.113281 46.238281 62.042969 46.234375 61.96875 46.230469 C 61.902344 46.230469 61.839844 46.226562 61.773438 46.226562 C 61.617188 46.207031 61.617188 46.207031 61.492188 46.082031 C 61.46875 45.929688 61.46875 45.929688 61.464844 45.738281 C 61.460938 45.671875 61.460938 45.605469 61.457031 45.535156 C 61.457031 45.464844 61.453125 45.394531 61.453125 45.324219 C 61.449219 45.25 61.445312 45.179688 61.445312 45.109375 C 61.4375 44.933594 61.433594 44.757812 61.429688 44.582031 C 61.355469 44.582031 61.28125 44.582031 61.207031 44.582031 C 60.933594 44.585938 60.664062 44.585938 60.394531 44.585938 C 60.277344 44.589844 60.160156 44.589844 60.042969 44.589844 C 59.871094 44.59375 59.703125 44.59375 59.535156 44.59375 C 59.484375 44.59375 59.429688 44.59375 59.378906 44.59375 C 59.246094 44.59375 59.121094 44.589844 58.992188 44.582031 C 58.8125 44.402344 58.851562 44.285156 58.851562 44.03125 C 58.851562 43.988281 58.851562 43.945312 58.851562 43.898438 C 58.851562 43.753906 58.851562 43.605469 58.851562 43.457031 C 58.851562 43.351562 58.851562 43.246094 58.851562 43.140625 C 58.847656 42.851562 58.847656 42.5625 58.851562 42.277344 C 58.851562 41.976562 58.851562 41.675781 58.851562 41.375 C 58.847656 40.871094 58.851562 40.363281 58.851562 39.863281 C 58.851562 39.28125 58.851562 38.695312 58.851562 38.113281 C 58.847656 37.613281 58.847656 37.113281 58.851562 36.613281 C 58.851562 36.316406 58.851562 36.015625 58.847656 35.714844 C 58.847656 35.433594 58.847656 35.152344 58.851562 34.871094 C 58.851562 34.765625 58.851562 34.664062 58.851562 34.558594 C 58.851562 34.417969 58.851562 34.277344 58.851562 34.136719 C 58.851562 34.058594 58.851562 33.980469 58.851562 33.898438 C 58.875 33.601562 58.992188 33.574219 59.257812 33.574219 Z M 59.25 33.5625 "/>
<path style=" stroke:none;fill-rule:nonzero;fill:rgb(0%,0%,0%);fill-opacity:1;" d="M 72.25 33.4375 C 72.324219 33.4375 72.398438 33.4375 72.472656 33.4375 C 72.828125 33.4375 73.105469 33.460938 73.441406 33.582031 C 73.539062 33.609375 73.640625 33.632812 73.738281 33.660156 C 74.476562 33.882812 75.230469 34.417969 75.625 35.085938 C 75.707031 35.300781 75.707031 35.300781 75.75 35.460938 C 75.671875 35.542969 75.589844 35.628906 75.507812 35.710938 C 75.464844 35.757812 75.417969 35.804688 75.371094 35.851562 C 75.25 35.960938 75.25 35.960938 75.125 35.960938 C 75.109375 36 75.09375 36.039062 75.074219 36.082031 C 75 36.210938 75 36.210938 74.8125 36.273438 C 74.792969 36.335938 74.773438 36.394531 74.75 36.460938 C 74.484375 36.429688 74.359375 36.269531 74.1875 36.085938 C 73.761719 35.644531 73.40625 35.304688 72.8125 35.121094 C 72.691406 35.085938 72.691406 35.085938 72.566406 35.023438 C 71.929688 34.953125 71.183594 35.082031 70.628906 35.398438 C 70.308594 35.6875 70.089844 35.921875 70.054688 36.351562 C 70.046875 36.742188 70.074219 37.058594 70.335938 37.371094 C 70.839844 37.855469 71.585938 38.015625 72.242188 38.179688 C 73.855469 38.597656 73.855469 38.597656 74.5625 39.085938 C 74.605469 39.113281 74.652344 39.144531 74.699219 39.175781 C 75.285156 39.589844 75.722656 40.183594 75.875 40.894531 C 75.921875 41.464844 75.933594 42.058594 75.6875 42.582031 C 75.664062 42.632812 75.644531 42.679688 75.625 42.730469 C 75.257812 43.59375 74.648438 44.066406 73.8125 44.457031 L 73.8125 44.515625 C 73.886719 44.519531 73.957031 44.519531 74.035156 44.519531 C 74.304688 44.527344 74.574219 44.53125 74.847656 44.539062 C 74.964844 44.539062 75.082031 44.542969 75.199219 44.542969 C 75.367188 44.546875 75.535156 44.550781 75.703125 44.554688 C 75.757812 44.554688 75.808594 44.554688 75.863281 44.554688 C 76.234375 44.566406 76.234375 44.566406 76.375 44.703125 C 76.382812 44.875 76.386719 45.042969 76.386719 45.210938 C 76.386719 45.28125 76.386719 45.28125 76.386719 45.351562 C 76.382812 45.664062 76.351562 45.949219 76.3125 46.265625 L 73.1875 46.265625 C 73.1875 46.542969 73.1875 46.824219 73.1875 47.113281 C 73.1875 48.039062 73.1875 48.957031 73.1875 49.882812 C 73.191406 50.441406 73.191406 51 73.191406 51.566406 C 73.191406 52.050781 73.191406 52.539062 73.191406 53.027344 C 73.191406 53.285156 73.191406 53.542969 73.191406 53.800781 C 73.191406 54.042969 73.191406 54.289062 73.191406 54.535156 C 73.191406 54.621094 73.191406 54.710938 73.195312 54.800781 C 73.195312 54.921875 73.195312 55.042969 73.195312 55.164062 C 73.195312 55.234375 73.195312 55.300781 73.195312 55.371094 C 73.1875 55.523438 73.1875 55.523438 73.125 55.585938 C 72.863281 55.601562 72.605469 55.597656 72.347656 55.597656 C 72.277344 55.597656 72.203125 55.597656 72.125 55.601562 C 72.023438 55.601562 72.023438 55.601562 71.914062 55.601562 C 71.851562 55.601562 71.785156 55.601562 71.722656 55.601562 C 71.5625 55.585938 71.5625 55.585938 71.4375 55.460938 C 71.421875 55.304688 71.421875 55.304688 71.421875 55.101562 C 71.421875 55.023438 71.421875 54.945312 71.417969 54.867188 C 71.417969 54.78125 71.417969 54.695312 71.417969 54.609375 C 71.417969 54.519531 71.417969 54.429688 71.417969 54.339844 C 71.414062 54.09375 71.414062 53.851562 71.414062 53.609375 C 71.414062 53.351562 71.410156 53.097656 71.410156 52.839844 C 71.40625 52.355469 71.402344 51.871094 71.402344 51.390625 C 71.398438 50.839844 71.394531 50.289062 71.394531 49.738281 C 71.386719 48.609375 71.382812 47.46875 71.375 46.339844 C 71.324219 46.339844 71.324219 46.339844 71.269531 46.335938 C 70.898438 46.332031 70.523438 46.328125 70.15625 46.320312 C 70.015625 46.316406 69.878906 46.316406 69.738281 46.3125 C 69.542969 46.308594 69.34375 46.308594 69.144531 46.304688 C 69.082031 46.300781 69.019531 46.300781 68.953125 46.300781 C 68.898438 46.300781 68.839844 46.296875 68.78125 46.296875 C 68.730469 46.296875 68.679688 46.296875 68.625 46.292969 C 68.503906 46.277344 68.503906 46.277344 68.375 46.152344 C 68.359375 46.007812 68.359375 46.007812 68.359375 45.828125 C 68.359375 45.765625 68.359375 45.703125 68.359375 45.636719 C 68.359375 45.535156 68.359375 45.535156 68.363281 45.433594 C 68.359375 45.367188 68.359375 45.300781 68.359375 45.230469 C 68.359375 45.164062 68.359375 45.101562 68.359375 45.035156 C 68.359375 44.976562 68.359375 44.917969 68.359375 44.859375 C 68.375 44.714844 68.375 44.714844 68.503906 44.589844 C 68.664062 44.574219 68.664062 44.574219 68.871094 44.574219 C 68.980469 44.578125 68.980469 44.578125 69.089844 44.578125 C 69.167969 44.578125 69.242188 44.578125 69.324219 44.582031 C 69.398438 44.582031 69.476562 44.582031 69.554688 44.582031 C 69.746094 44.582031 69.9375 44.585938 70.125 44.589844 C 69.972656 44.421875 69.816406 44.339844 69.609375 44.246094 C 68.871094 43.914062 68.304688 43.414062 67.816406 42.777344 C 67.808594 42.503906 67.945312 42.34375 68.128906 42.152344 L 68.253906 42.152344 C 68.277344 42.097656 68.277344 42.097656 68.304688 42.042969 C 68.378906 41.898438 68.460938 41.769531 68.558594 41.640625 C 68.589844 41.59375 68.617188 41.550781 68.648438 41.507812 C 68.765625 41.386719 68.839844 41.363281 69.003906 41.335938 C 69.046875 41.394531 69.046875 41.394531 69.09375 41.457031 C 69.675781 42.199219 70.292969 42.886719 71.25 43.089844 C 71.511719 43.113281 71.765625 43.117188 72.023438 43.117188 C 72.125 43.117188 72.125 43.117188 72.226562 43.121094 C 72.644531 43.121094 72.976562 43.050781 73.363281 42.890625 C 73.496094 42.839844 73.496094 42.839844 73.621094 42.839844 L 73.621094 42.714844 C 73.726562 42.605469 73.828125 42.503906 73.933594 42.402344 C 74.15625 42.070312 74.105469 41.65625 74.058594 41.277344 C 73.898438 40.882812 73.621094 40.574219 73.234375 40.402344 C 73.074219 40.335938 72.914062 40.273438 72.75 40.214844 C 72.707031 40.199219 72.664062 40.183594 72.617188 40.164062 C 72.316406 40.058594 72.007812 39.980469 71.695312 39.902344 C 71.648438 39.890625 71.605469 39.878906 71.5625 39.867188 C 71.375 39.824219 71.1875 39.777344 71 39.738281 C 70.125 39.535156 69.21875 39 68.683594 38.273438 C 68.265625 37.554688 68.175781 36.773438 68.308594 35.960938 C 68.457031 35.441406 68.707031 34.945312 69.121094 34.585938 C 69.171875 34.535156 69.222656 34.480469 69.277344 34.425781 C 69.535156 34.171875 69.789062 33.988281 70.121094 33.832031 C 70.183594 33.804688 70.246094 33.773438 70.3125 33.742188 C 70.9375 33.488281 71.574219 33.433594 72.242188 33.441406 Z M 72.25 33.4375 "/>
<path style=" stroke:none;fill-rule:nonzero;fill:rgb(0%,0%,0%);fill-opacity:1;" d="M 82.25 33.5625 C 82.324219 33.558594 82.394531 33.558594 82.46875 33.554688 C 82.539062 33.554688 82.609375 33.554688 82.679688 33.554688 C 82.742188 33.550781 82.808594 33.550781 82.871094 33.550781 C 83.035156 33.585938 83.035156 33.585938 83.144531 33.734375 C 83.386719 34.246094 83.582031 34.769531 83.769531 35.308594 C 83.839844 35.503906 83.917969 35.695312 84 35.886719 C 84.148438 36.238281 84.277344 36.597656 84.402344 36.957031 C 84.496094 37.234375 84.605469 37.5 84.722656 37.769531 C 84.773438 37.90625 84.820312 38.046875 84.871094 38.1875 C 84.96875 38.464844 85.070312 38.730469 85.195312 38.996094 C 85.332031 39.289062 85.433594 39.582031 85.53125 39.890625 C 85.679688 40.328125 85.855469 40.757812 86.027344 41.1875 C 86.476562 42.308594 86.902344 43.433594 87.285156 44.582031 C 87.007812 44.589844 86.730469 44.59375 86.453125 44.59375 C 86.375 44.597656 86.292969 44.597656 86.214844 44.597656 C 86.101562 44.601562 86.101562 44.601562 85.984375 44.601562 C 85.878906 44.601562 85.878906 44.601562 85.773438 44.605469 C 85.597656 44.582031 85.597656 44.582031 85.484375 44.496094 C 85.394531 44.375 85.34375 44.261719 85.292969 44.121094 C 85.269531 44.066406 85.25 44.011719 85.226562 43.953125 C 85.207031 43.894531 85.183594 43.832031 85.160156 43.769531 C 85.109375 43.640625 85.0625 43.511719 85.011719 43.382812 C 84.984375 43.316406 84.960938 43.25 84.933594 43.179688 C 84.90625 43.105469 84.875 43.035156 84.847656 42.957031 C 84.832031 42.917969 84.816406 42.875 84.800781 42.832031 C 84.75 42.703125 84.699219 42.574219 84.648438 42.445312 C 84.632812 42.40625 84.617188 42.367188 84.601562 42.324219 C 84.53125 42.152344 84.480469 42.027344 84.347656 41.894531 C 84.152344 41.878906 84.152344 41.878906 83.917969 41.882812 C 83.875 41.882812 83.832031 41.882812 83.785156 41.882812 C 83.640625 41.882812 83.496094 41.882812 83.351562 41.882812 C 83.25 41.882812 83.148438 41.882812 83.046875 41.882812 C 82.785156 41.882812 82.519531 41.886719 82.253906 41.886719 C 81.984375 41.886719 81.714844 41.890625 81.441406 41.890625 C 80.910156 41.890625 80.378906 41.894531 79.847656 41.894531 C 79.839844 41.953125 79.832031 42.011719 79.820312 42.070312 C 79.78125 42.308594 79.699219 42.523438 79.613281 42.75 C 79.589844 42.816406 79.589844 42.816406 79.5625 42.882812 C 79.34375 43.457031 79.097656 44.019531 78.851562 44.589844 C 78.59375 44.59375 78.335938 44.597656 78.074219 44.601562 C 78.003906 44.601562 77.929688 44.605469 77.851562 44.605469 C 77.78125 44.605469 77.714844 44.605469 77.640625 44.605469 C 77.574219 44.609375 77.511719 44.609375 77.445312 44.609375 C 77.390625 44.601562 77.339844 44.597656 77.289062 44.589844 C 77.246094 44.527344 77.203125 44.464844 77.164062 44.402344 C 77.1875 44.28125 77.1875 44.28125 77.246094 44.144531 C 77.265625 44.09375 77.289062 44.042969 77.308594 43.992188 C 77.332031 43.9375 77.355469 43.882812 77.378906 43.828125 C 77.429688 43.714844 77.476562 43.601562 77.523438 43.484375 C 77.546875 43.429688 77.570312 43.375 77.59375 43.316406 C 77.6875 43.085938 77.777344 42.851562 77.859375 42.621094 C 77.96875 42.335938 78.078125 42.050781 78.199219 41.769531 C 78.308594 41.507812 78.410156 41.238281 78.507812 40.964844 C 78.597656 40.699219 78.695312 40.4375 78.808594 40.179688 C 78.976562 39.773438 79.132812 39.363281 79.285156 38.957031 C 79.410156 38.628906 79.539062 38.304688 79.671875 37.976562 C 79.820312 37.609375 79.957031 37.234375 80.082031 36.859375 C 80.191406 36.542969 80.316406 36.238281 80.449219 35.925781 C 80.550781 35.683594 80.644531 35.4375 80.742188 35.191406 C 80.757812 35.144531 80.777344 35.101562 80.792969 35.054688 C 80.867188 34.867188 80.9375 34.679688 81.011719 34.496094 C 81.0625 34.355469 81.117188 34.21875 81.171875 34.082031 C 81.1875 34.039062 81.203125 33.996094 81.21875 33.953125 C 81.414062 33.457031 81.773438 33.570312 82.25 33.5625 Z M 82.25 33.5625 "/>
<path style=" stroke:none;fill-rule:nonzero;fill:rgb(0%,0%,0%);fill-opacity:1;" d="M 81.8125 44.5 L 82.015625 44.503906 C 82.089844 44.507812 82.160156 44.507812 82.234375 44.507812 C 82.3125 44.511719 82.386719 44.511719 82.464844 44.515625 C 82.582031 44.519531 82.582031 44.519531 82.699219 44.519531 C 82.886719 44.523438 83.078125 44.527344 83.265625 44.535156 C 83.316406 44.632812 83.367188 44.730469 83.417969 44.828125 C 83.460938 44.910156 83.460938 44.910156 83.5 44.992188 C 83.597656 45.199219 83.660156 45.410156 83.722656 45.632812 C 83.785156 45.839844 83.863281 46.039062 83.949219 46.242188 C 84.054688 46.5 84.152344 46.765625 84.25 47.023438 C 84.304688 47.160156 84.363281 47.296875 84.421875 47.433594 C 84.546875 47.726562 84.648438 48.023438 84.75 48.324219 C 84.851562 48.609375 84.960938 48.882812 85.082031 49.15625 C 85.410156 49.964844 85.71875 50.78125 86.011719 51.601562 C 86.210938 52.152344 86.417969 52.699219 86.636719 53.238281 C 86.707031 53.414062 86.773438 53.59375 86.835938 53.769531 C 86.851562 53.8125 86.871094 53.859375 86.886719 53.902344 C 86.902344 53.945312 86.917969 53.988281 86.933594 54.03125 C 87.03125 54.289062 87.136719 54.539062 87.253906 54.789062 C 87.359375 55.015625 87.4375 55.214844 87.453125 55.46875 C 87.285156 55.636719 86.820312 55.558594 86.589844 55.5625 C 86.515625 55.566406 86.441406 55.570312 86.363281 55.574219 C 85.832031 55.582031 85.832031 55.582031 85.644531 55.453125 C 85.554688 55.339844 85.5 55.230469 85.445312 55.09375 C 85.425781 55.050781 85.40625 55.003906 85.386719 54.957031 C 85.328125 54.804688 85.277344 54.652344 85.226562 54.496094 C 85.191406 54.386719 85.152344 54.277344 85.113281 54.164062 C 85.078125 54.058594 85.042969 53.953125 85.007812 53.84375 C 84.953125 53.675781 84.894531 53.507812 84.835938 53.335938 C 84.8125 53.269531 84.792969 53.199219 84.765625 53.128906 C 84.703125 52.953125 84.703125 52.953125 84.507812 52.847656 C 84.316406 52.828125 84.316406 52.828125 84.09375 52.832031 C 84.050781 52.832031 84.011719 52.832031 83.96875 52.828125 C 83.828125 52.828125 83.691406 52.832031 83.550781 52.832031 C 83.457031 52.832031 83.359375 52.832031 83.265625 52.832031 C 83.0625 52.832031 82.859375 52.832031 82.660156 52.832031 C 82.402344 52.835938 82.140625 52.835938 81.882812 52.835938 C 81.6875 52.835938 81.488281 52.835938 81.289062 52.835938 C 81.195312 52.835938 81.097656 52.835938 81.003906 52.835938 C 80.871094 52.835938 80.738281 52.835938 80.605469 52.835938 C 80.527344 52.835938 80.453125 52.835938 80.375 52.835938 C 80.199219 52.832031 80.199219 52.832031 80.074219 52.90625 C 80.015625 53.035156 79.964844 53.167969 79.917969 53.296875 C 79.890625 53.371094 79.863281 53.441406 79.835938 53.515625 C 79.8125 53.582031 79.785156 53.648438 79.761719 53.71875 C 79.738281 53.773438 79.71875 53.824219 79.695312 53.878906 C 79.625 54.054688 79.570312 54.230469 79.511719 54.40625 C 79.449219 54.582031 79.386719 54.753906 79.324219 54.921875 C 79.296875 54.992188 79.296875 54.992188 79.273438 55.058594 C 79.148438 55.394531 79.148438 55.394531 79.011719 55.53125 C 78.75 55.5625 78.488281 55.554688 78.230469 55.550781 C 78.15625 55.554688 78.082031 55.554688 78.007812 55.554688 C 77.902344 55.554688 77.902344 55.554688 77.796875 55.554688 C 77.734375 55.554688 77.667969 55.554688 77.601562 55.554688 C 77.550781 55.546875 77.5 55.539062 77.449219 55.53125 C 77.40625 55.472656 77.363281 55.410156 77.324219 55.34375 C 77.371094 55.203125 77.371094 55.203125 77.46875 55.027344 C 77.703125 54.542969 77.878906 54.042969 78.058594 53.53125 C 78.175781 53.191406 78.304688 52.855469 78.453125 52.527344 C 78.675781 52.039062 78.84375 51.53125 79.03125 51.03125 C 79.703125 49.195312 79.703125 49.195312 80.003906 48.558594 C 80.183594 48.164062 80.3125 47.757812 80.441406 47.34375 C 80.542969 47.035156 80.671875 46.75 80.808594 46.457031 C 80.886719 46.277344 80.949219 46.09375 81.007812 45.90625 C 81.128906 45.539062 81.273438 45.1875 81.445312 44.84375 C 81.472656 44.792969 81.496094 44.738281 81.523438 44.683594 C 81.632812 44.53125 81.632812 44.53125 81.804688 44.496094 Z M 81.8125 44.5 "/>
<path style=" stroke:none;fill-rule:nonzero;fill:rgb(99.215686%,99.215686%,99.215686%);fill-opacity:1;" d="M 95.9375 35.6875 C 96.078125 35.804688 96.117188 35.890625 96.195312 36.046875 C 96.277344 36.09375 96.363281 36.132812 96.445312 36.175781 C 97.222656 36.980469 97.507812 38.078125 97.507812 39.167969 C 97.484375 40.375 97.113281 41.273438 96.300781 42.136719 C 95.703125 42.710938 94.945312 42.992188 94.128906 43.050781 C 94.066406 43.054688 94.066406 43.054688 94 43.058594 C 92.996094 43.101562 92.15625 42.757812 91.394531 42.113281 C 90.621094 41.394531 90.21875 40.394531 90.175781 39.351562 C 90.171875 39.105469 90.179688 38.859375 90.191406 38.609375 C 90.191406 38.542969 90.195312 38.476562 90.199219 38.40625 C 90.21875 38.070312 90.273438 37.84375 90.441406 37.542969 C 90.464844 37.460938 90.488281 37.375 90.511719 37.289062 C 90.820312 36.332031 91.589844 35.765625 92.445312 35.316406 C 92.597656 35.246094 92.71875 35.199219 92.878906 35.167969 C 92.925781 35.15625 92.972656 35.148438 93.023438 35.136719 C 94.066406 34.945312 95.046875 35.109375 95.929688 35.683594 Z M 95.9375 35.6875 "/>
<path style=" stroke:none;fill-rule:nonzero;fill:rgb(99.215686%,99.215686%,99.215686%);fill-opacity:1;" d="M 33.125 46.1875 C 33.183594 46.1875 33.246094 46.1875 33.308594 46.1875 C 33.402344 46.1875 33.402344 46.1875 33.5 46.191406 C 33.601562 46.191406 33.601562 46.191406 33.707031 46.191406 C 33.847656 46.195312 33.988281 46.195312 34.132812 46.199219 C 34.277344 46.199219 34.421875 46.203125 34.566406 46.203125 C 36.101562 46.210938 36.101562 46.210938 36.691406 46.570312 C 36.789062 46.625 36.789062 46.625 36.894531 46.683594 C 37.792969 47.328125 38.238281 48.214844 38.417969 49.277344 C 38.457031 49.570312 38.460938 49.863281 38.464844 50.15625 C 38.464844 50.214844 38.464844 50.269531 38.464844 50.328125 C 38.457031 50.710938 38.402344 51.0625 38.316406 51.441406 C 38.300781 51.496094 38.289062 51.554688 38.273438 51.613281 C 38.074219 52.332031 37.652344 52.921875 37.0625 53.378906 C 36.980469 53.441406 36.980469 53.441406 36.894531 53.511719 C 36.648438 53.648438 36.414062 53.710938 36.144531 53.777344 C 36.003906 53.800781 36.003906 53.800781 35.9375 53.878906 C 35.832031 53.882812 35.722656 53.886719 35.617188 53.886719 C 35.546875 53.886719 35.480469 53.886719 35.410156 53.886719 C 35.335938 53.886719 35.257812 53.886719 35.183594 53.886719 C 35.105469 53.886719 35.03125 53.886719 34.953125 53.886719 C 34.789062 53.886719 34.628906 53.886719 34.46875 53.886719 C 34.21875 53.882812 33.972656 53.886719 33.722656 53.886719 C 33.566406 53.886719 33.410156 53.886719 33.253906 53.886719 C 33.144531 53.886719 33.144531 53.886719 33.027344 53.886719 C 32.960938 53.886719 32.890625 53.886719 32.820312 53.886719 C 32.730469 53.886719 32.730469 53.886719 32.636719 53.886719 C 32.5 53.878906 32.5 53.878906 32.4375 53.8125 C 32.429688 53.71875 32.429688 53.621094 32.429688 53.523438 C 32.429688 53.464844 32.429688 53.402344 32.429688 53.335938 C 32.429688 53.265625 32.429688 53.199219 32.429688 53.125 C 32.429688 53.054688 32.429688 52.980469 32.429688 52.90625 C 32.429688 52.667969 32.429688 52.425781 32.429688 52.1875 C 32.429688 52.023438 32.429688 51.855469 32.429688 51.6875 C 32.429688 51.339844 32.429688 50.988281 32.429688 50.640625 C 32.429688 50.234375 32.429688 49.832031 32.429688 49.425781 C 32.429688 49.082031 32.429688 48.734375 32.429688 48.390625 C 32.429688 48.183594 32.429688 47.976562 32.429688 47.769531 C 32.429688 47.539062 32.429688 47.304688 32.429688 47.074219 C 32.429688 47.003906 32.429688 46.9375 32.429688 46.863281 C 32.429688 46.800781 32.429688 46.738281 32.429688 46.675781 C 32.429688 46.621094 32.429688 46.566406 32.429688 46.507812 C 32.4375 46.378906 32.4375 46.378906 32.5 46.253906 C 32.710938 46.195312 32.90625 46.183594 33.121094 46.183594 Z M 33.125 46.1875 "/>
<path style=" stroke:none;fill-rule:nonzero;fill:rgb(0%,0%,0%);fill-opacity:1;" d="M 89.8125 44.5625 C 89.878906 44.5625 89.945312 44.5625 90.015625 44.5625 C 90.121094 44.5625 90.121094 44.5625 90.226562 44.5625 C 90.296875 44.5625 90.367188 44.5625 90.4375 44.5625 C 90.503906 44.5625 90.570312 44.5625 90.640625 44.5625 C 90.703125 44.5625 90.761719 44.5625 90.828125 44.5625 C 90.976562 44.578125 90.976562 44.578125 91.101562 44.703125 C 91.117188 44.863281 91.117188 44.863281 91.117188 45.066406 C 91.117188 45.140625 91.117188 45.21875 91.117188 45.296875 C 91.117188 45.382812 91.117188 45.46875 91.117188 45.554688 C 91.117188 45.644531 91.117188 45.734375 91.117188 45.824219 C 91.117188 46.070312 91.113281 46.316406 91.113281 46.558594 C 91.113281 46.8125 91.113281 47.066406 91.113281 47.328125 C 91.113281 47.808594 91.113281 48.292969 91.109375 48.777344 C 91.109375 49.328125 91.109375 49.875 91.109375 50.425781 C 91.105469 51.558594 91.105469 52.695312 91.101562 53.824219 C 91.164062 53.828125 91.222656 53.828125 91.289062 53.828125 C 91.328125 53.828125 91.371094 53.828125 91.414062 53.828125 C 91.503906 53.832031 91.597656 53.832031 91.691406 53.832031 C 91.949219 53.835938 92.207031 53.839844 92.460938 53.84375 C 92.945312 53.847656 93.429688 53.855469 93.910156 53.859375 C 94.101562 53.863281 94.292969 53.863281 94.484375 53.867188 C 94.578125 53.867188 94.671875 53.871094 94.761719 53.871094 C 94.90625 53.871094 95.046875 53.875 95.191406 53.875 C 95.269531 53.875 95.351562 53.878906 95.433594 53.878906 C 96.050781 53.90625 96.050781 53.90625 96.21875 54.078125 C 96.234375 54.222656 96.234375 54.222656 96.234375 54.402344 C 96.234375 54.464844 96.234375 54.527344 96.234375 54.59375 C 96.234375 54.664062 96.234375 54.730469 96.234375 54.796875 C 96.230469 54.898438 96.230469 54.898438 96.230469 55.003906 C 96.230469 55.503906 96.230469 55.503906 96.15625 55.574219 C 96.070312 55.582031 95.984375 55.585938 95.898438 55.585938 C 95.839844 55.585938 95.785156 55.585938 95.726562 55.585938 C 95.664062 55.585938 95.601562 55.585938 95.539062 55.585938 C 95.441406 55.585938 95.441406 55.585938 95.34375 55.585938 C 95.125 55.585938 94.910156 55.585938 94.691406 55.585938 C 94.542969 55.585938 94.394531 55.585938 94.242188 55.585938 C 93.929688 55.585938 93.617188 55.589844 93.300781 55.589844 C 92.898438 55.589844 92.492188 55.589844 92.085938 55.589844 C 91.777344 55.589844 91.46875 55.589844 91.160156 55.589844 C 91.011719 55.589844 90.863281 55.589844 90.714844 55.589844 C 90.507812 55.59375 90.300781 55.589844 90.09375 55.589844 C 90 55.59375 90 55.59375 89.90625 55.59375 C 89.820312 55.59375 89.820312 55.59375 89.734375 55.589844 C 89.660156 55.589844 89.660156 55.589844 89.585938 55.589844 C 89.464844 55.574219 89.464844 55.574219 89.339844 55.453125 C 89.324219 55.269531 89.324219 55.269531 89.324219 55.027344 C 89.324219 54.984375 89.324219 54.941406 89.324219 54.894531 C 89.324219 54.746094 89.324219 54.601562 89.324219 54.453125 C 89.324219 54.347656 89.324219 54.242188 89.324219 54.136719 C 89.324219 53.847656 89.324219 53.558594 89.324219 53.273438 C 89.324219 52.972656 89.324219 52.671875 89.324219 52.371094 C 89.324219 51.867188 89.324219 51.359375 89.324219 50.859375 C 89.324219 50.277344 89.324219 49.691406 89.324219 49.109375 C 89.324219 48.609375 89.324219 48.109375 89.324219 47.609375 C 89.324219 47.308594 89.324219 47.011719 89.324219 46.710938 C 89.324219 46.429688 89.324219 46.148438 89.324219 45.867188 C 89.324219 45.761719 89.324219 45.660156 89.324219 45.554688 C 89.324219 45.414062 89.324219 45.273438 89.324219 45.132812 C 89.324219 45.054688 89.324219 44.976562 89.324219 44.894531 C 89.355469 44.5625 89.511719 44.570312 89.800781 44.570312 Z M 89.8125 44.5625 "/>
<path style=" stroke:none;fill-rule:nonzero;fill:rgb(99.215686%,99.215686%,99.215686%);fill-opacity:1;" d="M 40.6875 35.25 C 41.128906 35.246094 41.574219 35.242188 42.011719 35.238281 C 42.164062 35.238281 42.3125 35.238281 42.464844 35.234375 C 42.679688 35.234375 42.898438 35.230469 43.113281 35.230469 C 43.179688 35.230469 43.246094 35.230469 43.316406 35.230469 C 43.878906 35.230469 44.410156 35.296875 44.832031 35.699219 C 45.355469 36.292969 45.417969 36.792969 45.371094 37.5625 C 45.332031 37.742188 45.28125 37.839844 45.183594 38 C 45.144531 38.066406 45.105469 38.128906 45.066406 38.199219 C 44.886719 38.4375 44.621094 38.707031 44.316406 38.773438 C 43.925781 38.8125 43.542969 38.820312 43.148438 38.824219 C 43.046875 38.824219 43.046875 38.824219 42.945312 38.824219 C 42.804688 38.824219 42.664062 38.824219 42.523438 38.824219 C 42.308594 38.824219 42.09375 38.824219 41.878906 38.824219 C 41.742188 38.824219 41.609375 38.828125 41.46875 38.828125 C 41.375 38.828125 41.375 38.828125 41.273438 38.828125 C 41.214844 38.828125 41.15625 38.828125 41.09375 38.828125 C 41.042969 38.828125 40.988281 38.828125 40.9375 38.828125 C 40.808594 38.8125 40.808594 38.8125 40.683594 38.6875 C 40.667969 38.542969 40.667969 38.542969 40.667969 38.355469 C 40.667969 38.289062 40.667969 38.21875 40.667969 38.148438 C 40.671875 38.074219 40.671875 38 40.671875 37.921875 C 40.671875 37.847656 40.671875 37.769531 40.671875 37.691406 C 40.671875 37.449219 40.675781 37.203125 40.675781 36.960938 C 40.675781 36.796875 40.675781 36.628906 40.675781 36.464844 C 40.679688 36.058594 40.679688 35.652344 40.683594 35.246094 Z M 40.6875 35.25 "/>
<path style=" stroke:none;fill-rule:nonzero;fill:rgb(94.509804%,37.254902%,2.352941%);fill-opacity:1;" d="M 12.125 46.3125 C 12.1875 46.3125 12.25 46.3125 12.3125 46.3125 C 12.515625 46.3125 12.722656 46.3125 12.925781 46.3125 C 13.070312 46.3125 13.214844 46.3125 13.355469 46.3125 C 13.65625 46.3125 13.957031 46.3125 14.257812 46.3125 C 14.636719 46.3125 15.019531 46.3125 15.398438 46.3125 C 15.695312 46.3125 15.992188 46.3125 16.289062 46.3125 C 16.429688 46.3125 16.570312 46.3125 16.710938 46.3125 C 17.570312 46.3125 18.429688 46.332031 19.289062 46.382812 C 19.402344 46.59375 19.429688 46.730469 19.429688 46.96875 C 19.429688 47.035156 19.429688 47.097656 19.429688 47.164062 C 19.429688 47.230469 19.429688 47.296875 19.425781 47.363281 C 19.425781 47.464844 19.425781 47.464844 19.425781 47.566406 C 19.425781 48.0625 19.425781 48.0625 19.351562 48.132812 C 19.246094 48.140625 19.136719 48.140625 19.03125 48.140625 C 18.960938 48.140625 18.890625 48.140625 18.820312 48.140625 C 18.703125 48.140625 18.703125 48.140625 18.585938 48.140625 C 18.464844 48.144531 18.464844 48.144531 18.339844 48.144531 C 18.117188 48.144531 17.898438 48.144531 17.671875 48.144531 C 17.488281 48.144531 17.300781 48.144531 17.117188 48.144531 C 16.679688 48.144531 16.242188 48.144531 15.804688 48.144531 C 15.351562 48.144531 14.902344 48.144531 14.449219 48.148438 C 14.0625 48.148438 13.671875 48.148438 13.285156 48.148438 C 13.054688 48.148438 12.824219 48.148438 12.589844 48.148438 C 12.332031 48.148438 12.074219 48.148438 11.816406 48.148438 C 11.699219 48.148438 11.699219 48.148438 11.582031 48.148438 C 11.476562 48.148438 11.476562 48.148438 11.371094 48.148438 C 11.308594 48.148438 11.25 48.148438 11.1875 48.148438 C 11.035156 48.132812 11.035156 48.132812 10.847656 48.007812 C 10.824219 47.859375 10.824219 47.859375 10.824219 47.671875 C 10.824219 47.605469 10.824219 47.539062 10.824219 47.46875 C 10.824219 47.398438 10.824219 47.332031 10.828125 47.257812 C 10.828125 47.1875 10.824219 47.117188 10.824219 47.046875 C 10.828125 46.523438 10.828125 46.523438 10.972656 46.382812 C 11.351562 46.316406 11.726562 46.3125 12.109375 46.3125 Z M 12.125 46.3125 "/>
<path style=" stroke:none;fill-rule:nonzero;fill:rgb(99.215686%,99.215686%,99.215686%);fill-opacity:1;" d="M 31.8125 35.75 C 31.875 35.769531 31.9375 35.792969 32 35.8125 C 32.066406 35.980469 32.066406 35.980469 32.125 36.195312 C 32.195312 36.453125 32.277344 36.695312 32.386719 36.9375 C 32.511719 37.246094 32.605469 37.5625 32.707031 37.882812 C 32.808594 38.199219 32.925781 38.503906 33.066406 38.808594 C 33.152344 38.996094 33.21875 39.191406 33.289062 39.386719 C 33.316406 39.457031 33.339844 39.53125 33.367188 39.605469 C 33.433594 39.796875 33.5 39.992188 33.5625 40.1875 L 30.3125 40.1875 C 30.3125 39.957031 30.328125 39.875 30.414062 39.671875 C 30.53125 39.386719 30.644531 39.101562 30.75 38.808594 C 30.855469 38.527344 30.964844 38.246094 31.078125 37.964844 C 31.167969 37.75 31.230469 37.535156 31.28125 37.308594 C 31.359375 36.992188 31.46875 36.6875 31.601562 36.382812 C 31.675781 36.207031 31.71875 36.054688 31.75 35.867188 L 31.8125 35.742188 Z M 31.8125 35.75 "/>
<path style=" stroke:none;fill-rule:nonzero;fill:rgb(99.215686%,99.215686%,99.215686%);fill-opacity:1;" d="M 82.375 46.6875 C 82.488281 46.894531 82.558594 47.105469 82.632812 47.332031 C 83.054688 48.625 83.054688 48.625 83.550781 49.894531 C 83.636719 50.09375 83.71875 50.292969 83.800781 50.496094 C 83.824219 50.5625 83.851562 50.625 83.878906 50.691406 C 83.9375 50.875 83.9375 50.875 83.9375 51.1875 L 80.8125 51.1875 C 80.742188 50.910156 80.742188 50.910156 80.851562 50.695312 C 81.003906 50.375 81.121094 50.039062 81.238281 49.707031 C 81.292969 49.550781 81.351562 49.394531 81.410156 49.238281 C 81.59375 48.75 81.769531 48.257812 81.945312 47.765625 C 81.960938 47.71875 81.976562 47.675781 81.992188 47.628906 C 82.015625 47.5625 82.015625 47.5625 82.039062 47.496094 C 82.054688 47.457031 82.066406 47.414062 82.082031 47.371094 C 82.121094 47.261719 82.15625 47.15625 82.191406 47.046875 C 82.25 46.878906 82.25 46.878906 82.375 46.691406 Z M 82.375 46.6875 "/>
<path style=" stroke:none;fill-rule:nonzero;fill:rgb(99.215686%,99.215686%,99.215686%);fill-opacity:1;" d="M 82.1875 35.75 C 82.347656 35.890625 82.410156 36.003906 82.472656 36.207031 C 82.488281 36.261719 82.503906 36.316406 82.523438 36.375 C 82.539062 36.433594 82.554688 36.492188 82.574219 36.550781 C 82.867188 37.507812 83.1875 38.449219 83.613281 39.355469 C 83.710938 39.625 83.757812 39.90625 83.8125 40.1875 L 80.625 40.1875 C 80.757812 39.527344 80.757812 39.527344 80.9375 39.1875 C 80.980469 39.042969 81.023438 38.898438 81.0625 38.75 C 81.140625 38.496094 81.21875 38.25 81.339844 38.011719 C 81.507812 37.671875 81.628906 37.300781 81.722656 36.933594 C 81.761719 36.765625 81.824219 36.609375 81.886719 36.449219 C 81.921875 36.359375 81.957031 36.265625 81.988281 36.175781 C 82.117188 35.820312 82.117188 35.820312 82.1875 35.753906 Z M 82.1875 35.75 "/>
<path style=" stroke:none;fill-rule:nonzero;fill:rgb(0%,0%,0%);fill-opacity:1;" d="M 83.0625 30.5 C 83.257812 30.574219 83.449219 30.59375 83.652344 30.621094 C 83.664062 30.582031 83.679688 30.539062 83.691406 30.5 C 83.707031 30.449219 83.726562 30.394531 83.742188 30.34375 C 83.757812 30.292969 83.777344 30.238281 83.792969 30.1875 C 83.839844 30.058594 83.839844 30.058594 83.902344 29.996094 C 84.070312 29.988281 84.234375 29.984375 84.398438 29.984375 C 84.46875 29.980469 84.46875 29.980469 84.539062 29.980469 C 84.660156 29.980469 84.78125 29.988281 84.902344 29.996094 C 84.964844 30.058594 84.964844 30.058594 85.027344 30.121094 C 85.011719 30.585938 84.859375 31.089844 84.527344 31.433594 L 84.402344 31.433594 C 84.371094 31.527344 84.371094 31.527344 84.339844 31.621094 C 83.8125 31.902344 83.285156 31.824219 82.722656 31.660156 C 82.355469 31.546875 81.992188 31.425781 81.628906 31.296875 C 81.421875 31.234375 81.238281 31.234375 81.023438 31.246094 C 81.007812 31.3125 80.988281 31.382812 80.972656 31.457031 C 80.898438 31.683594 80.898438 31.683594 80.710938 31.808594 C 80.539062 31.808594 80.375 31.800781 80.203125 31.789062 L 80.0625 31.777344 C 79.71875 31.753906 79.71875 31.753906 79.648438 31.683594 C 79.578125 31.234375 79.773438 30.863281 80.023438 30.496094 C 80.960938 29.636719 82.027344 30.0625 83.058594 30.5 Z M 83.0625 30.5 "/>
<path style=" stroke:none;fill-rule:nonzero;fill:rgb(94.509804%,37.254902%,2.352941%);fill-opacity:1;" d="M 18.75 41.25 C 18.835938 41.25 18.835938 41.25 18.925781 41.25 C 18.988281 41.25 19.054688 41.25 19.121094 41.25 C 19.226562 41.253906 19.226562 41.253906 19.335938 41.253906 C 19.40625 41.253906 19.480469 41.253906 19.554688 41.253906 C 19.785156 41.253906 20.015625 41.253906 20.246094 41.257812 C 20.402344 41.257812 20.558594 41.257812 20.714844 41.257812 C 21.097656 41.261719 21.484375 41.261719 21.863281 41.265625 C 21.992188 41.476562 22 41.625 21.988281 41.867188 C 21.984375 41.933594 21.980469 42 21.980469 42.070312 C 21.976562 42.140625 21.972656 42.207031 21.96875 42.28125 C 21.960938 42.386719 21.960938 42.386719 21.957031 42.492188 C 21.949219 42.667969 21.9375 42.839844 21.929688 43.015625 C 21.457031 43.019531 20.992188 43.019531 20.523438 43.023438 C 20.359375 43.023438 20.203125 43.023438 20.042969 43.023438 C 19.8125 43.027344 19.582031 43.027344 19.355469 43.027344 C 19.246094 43.027344 19.246094 43.027344 19.136719 43.03125 C 19.070312 43.03125 19.003906 43.03125 18.9375 43.03125 C 18.878906 43.03125 18.820312 43.03125 18.757812 43.03125 C 18.617188 43.015625 18.617188 43.015625 18.492188 42.890625 C 18.476562 42.738281 18.476562 42.738281 18.476562 42.554688 C 18.476562 42.488281 18.476562 42.421875 18.476562 42.351562 C 18.476562 42.246094 18.476562 42.246094 18.476562 42.140625 C 18.476562 42.070312 18.476562 42 18.476562 41.929688 C 18.476562 41.859375 18.476562 41.796875 18.476562 41.726562 C 18.476562 41.664062 18.476562 41.605469 18.476562 41.539062 C 18.5 41.339844 18.550781 41.273438 18.757812 41.25 Z M 18.75 41.25 "/>
<path style=" stroke:none;fill-rule:nonzero;fill:rgb(94.509804%,37.254902%,2.352941%);fill-opacity:1;" d="M 9.75 43.75 C 9.8125 43.75 9.871094 43.75 9.933594 43.753906 C 9.996094 43.753906 10.0625 43.753906 10.125 43.757812 C 10.222656 43.757812 10.222656 43.757812 10.320312 43.757812 C 10.476562 43.761719 10.636719 43.765625 10.792969 43.769531 C 10.878906 43.9375 10.863281 44.070312 10.863281 44.257812 C 10.863281 44.367188 10.863281 44.367188 10.863281 44.480469 C 10.863281 44.554688 10.863281 44.632812 10.863281 44.710938 C 10.863281 44.824219 10.863281 44.824219 10.863281 44.941406 C 10.863281 45.015625 10.863281 45.085938 10.863281 45.160156 C 10.863281 45.226562 10.863281 45.296875 10.863281 45.363281 C 10.855469 45.519531 10.855469 45.519531 10.792969 45.582031 C 10.535156 45.597656 10.277344 45.59375 10.019531 45.59375 C 9.945312 45.59375 9.871094 45.59375 9.796875 45.59375 C 9.726562 45.59375 9.65625 45.59375 9.585938 45.59375 C 9.519531 45.597656 9.457031 45.597656 9.390625 45.597656 C 9.234375 45.582031 9.234375 45.582031 9.109375 45.457031 C 9.078125 45.210938 9.082031 44.960938 9.082031 44.710938 C 9.078125 44.644531 9.078125 44.574219 9.074219 44.503906 C 9.074219 44.4375 9.074219 44.371094 9.074219 44.300781 C 9.074219 44.238281 9.070312 44.179688 9.070312 44.117188 C 9.109375 43.960938 9.109375 43.960938 9.246094 43.84375 C 9.429688 43.765625 9.550781 43.75 9.753906 43.753906 Z M 9.75 43.75 "/>
<path style=" stroke:none;fill-rule:nonzero;fill:rgb(94.509804%,37.254902%,2.352941%);fill-opacity:1;" d="M 9.4375 46.3125 C 9.503906 46.3125 9.503906 46.3125 9.574219 46.308594 C 9.6875 46.308594 9.800781 46.316406 9.914062 46.324219 C 10.039062 46.449219 10.039062 46.449219 10.054688 46.613281 C 10.054688 46.710938 10.054688 46.710938 10.054688 46.816406 C 10.054688 46.886719 10.054688 46.960938 10.050781 47.035156 C 10.050781 47.148438 10.050781 47.148438 10.050781 47.265625 C 10.050781 47.339844 10.050781 47.417969 10.050781 47.496094 C 10.046875 48.066406 10.046875 48.066406 9.976562 48.132812 C 9.765625 48.152344 9.550781 48.148438 9.339844 48.148438 C 9.277344 48.148438 9.21875 48.148438 9.160156 48.148438 C 8.84375 48.148438 8.582031 48.136719 8.289062 48.011719 C 8.285156 47.761719 8.285156 47.515625 8.28125 47.265625 C 8.28125 47.195312 8.28125 47.125 8.277344 47.054688 C 8.277344 46.984375 8.277344 46.917969 8.277344 46.847656 C 8.277344 46.785156 8.277344 46.722656 8.277344 46.660156 C 8.289062 46.507812 8.289062 46.507812 8.414062 46.382812 C 8.753906 46.316406 9.097656 46.3125 9.441406 46.308594 Z M 9.4375 46.3125 "/>
<path style=" stroke:none;fill-rule:nonzero;fill:rgb(94.509804%,37.254902%,2.352941%);fill-opacity:1;" d="M 20.6875 46.375 C 20.757812 46.375 20.828125 46.375 20.898438 46.375 C 20.972656 46.375 21.042969 46.375 21.121094 46.375 C 21.191406 46.375 21.265625 46.375 21.339844 46.375 C 21.410156 46.375 21.480469 46.375 21.550781 46.375 C 21.613281 46.375 21.679688 46.375 21.746094 46.375 C 21.902344 46.390625 21.902344 46.390625 22.027344 46.515625 C 22.039062 46.675781 22.039062 46.675781 22.039062 46.871094 C 22.039062 46.941406 22.035156 47.011719 22.035156 47.082031 C 22.035156 47.15625 22.035156 47.230469 22.035156 47.304688 C 22.03125 47.378906 22.03125 47.453125 22.03125 47.53125 C 22.03125 47.710938 22.027344 47.894531 22.027344 48.078125 C 21.769531 48.207031 21.4375 48.152344 21.15625 48.152344 C 21.085938 48.152344 21.019531 48.15625 20.945312 48.15625 C 20.847656 48.15625 20.847656 48.15625 20.746094 48.15625 C 20.683594 48.15625 20.621094 48.15625 20.558594 48.15625 C 20.402344 48.140625 20.402344 48.140625 20.214844 48.015625 C 20.191406 47.867188 20.191406 47.867188 20.191406 47.679688 C 20.191406 47.613281 20.191406 47.546875 20.191406 47.480469 C 20.195312 47.410156 20.195312 47.339844 20.195312 47.265625 C 20.195312 47.195312 20.195312 47.125 20.195312 47.054688 C 20.199219 46.375 20.199219 46.375 20.691406 46.375 Z M 20.6875 46.375 "/>
<path style=" stroke:none;fill-rule:nonzero;fill:rgb(94.509804%,37.254902%,2.352941%);fill-opacity:1;" d="M 13.9375 41.25 C 14.039062 41.25 14.039062 41.25 14.140625 41.253906 C 14.210938 41.253906 14.28125 41.253906 14.351562 41.257812 C 14.421875 41.257812 14.492188 41.257812 14.566406 41.257812 C 14.742188 41.261719 14.917969 41.265625 15.089844 41.269531 C 15.183594 41.472656 15.230469 41.636719 15.230469 41.863281 C 15.234375 41.9375 15.234375 41.9375 15.234375 42.019531 C 15.230469 42.070312 15.230469 42.125 15.230469 42.175781 C 15.230469 42.230469 15.230469 42.285156 15.234375 42.339844 C 15.234375 42.390625 15.234375 42.441406 15.230469 42.496094 C 15.230469 42.542969 15.230469 42.585938 15.230469 42.636719 C 15.214844 42.785156 15.164062 42.886719 15.089844 43.015625 C 14.855469 43.019531 14.621094 43.023438 14.390625 43.023438 C 14.289062 43.027344 14.289062 43.027344 14.1875 43.027344 C 14.09375 43.03125 14.09375 43.03125 13.996094 43.03125 C 13.90625 43.03125 13.90625 43.03125 13.816406 43.03125 C 13.648438 43.015625 13.550781 42.976562 13.40625 42.894531 C 13.402344 42.65625 13.398438 42.421875 13.394531 42.1875 C 13.390625 42.117188 13.390625 42.050781 13.390625 41.984375 C 13.386719 41.917969 13.386719 41.855469 13.386719 41.789062 C 13.386719 41.730469 13.386719 41.667969 13.382812 41.609375 C 13.40625 41.457031 13.40625 41.457031 13.480469 41.34375 C 13.636719 41.238281 13.75 41.246094 13.941406 41.25 Z M 13.9375 41.25 "/>
<path style=" stroke:none;fill-rule:nonzero;fill:rgb(94.509804%,37.254902%,2.352941%);fill-opacity:1;" d="M 13.3125 43.75 C 13.417969 43.976562 13.453125 44.15625 13.453125 44.40625 C 13.453125 44.46875 13.453125 44.535156 13.453125 44.597656 C 13.449219 44.699219 13.449219 44.699219 13.449219 44.796875 C 13.449219 44.863281 13.449219 44.929688 13.449219 45 C 13.445312 45.492188 13.445312 45.492188 13.375 45.5625 C 13.128906 45.578125 12.878906 45.574219 12.632812 45.574219 C 12.527344 45.574219 12.527344 45.574219 12.417969 45.578125 C 12.351562 45.578125 12.285156 45.578125 12.21875 45.578125 C 12.15625 45.578125 12.09375 45.578125 12.03125 45.578125 C 11.871094 45.5625 11.871094 45.5625 11.683594 45.4375 C 11.664062 45.289062 11.664062 45.289062 11.664062 45.101562 C 11.664062 45.035156 11.664062 44.96875 11.664062 44.898438 C 11.664062 44.832031 11.664062 44.761719 11.664062 44.6875 C 11.664062 44.617188 11.664062 44.546875 11.664062 44.476562 C 11.667969 43.953125 11.667969 43.953125 11.808594 43.8125 C 11.933594 43.792969 11.933594 43.792969 12.085938 43.789062 C 12.140625 43.785156 12.195312 43.785156 12.253906 43.78125 C 12.3125 43.777344 12.367188 43.777344 12.425781 43.773438 C 12.484375 43.773438 12.542969 43.769531 12.601562 43.765625 C 12.835938 43.757812 13.074219 43.75 13.3125 43.75 Z M 13.3125 43.75 "/>
<path style=" stroke:none;fill-rule:nonzero;fill:rgb(94.509804%,37.254902%,2.352941%);fill-opacity:1;" d="M 16.25 41.25 C 16.316406 41.25 16.378906 41.25 16.445312 41.253906 C 16.515625 41.253906 16.585938 41.253906 16.660156 41.253906 C 16.734375 41.253906 16.804688 41.253906 16.882812 41.257812 C 16.992188 41.257812 16.992188 41.257812 17.105469 41.257812 C 17.289062 41.257812 17.472656 41.261719 17.65625 41.265625 C 17.738281 41.429688 17.726562 41.554688 17.726562 41.742188 C 17.726562 41.847656 17.726562 41.847656 17.726562 41.953125 C 17.726562 42.027344 17.726562 42.097656 17.726562 42.175781 C 17.726562 42.285156 17.726562 42.285156 17.726562 42.398438 C 17.726562 42.464844 17.726562 42.535156 17.726562 42.609375 C 17.726562 42.671875 17.726562 42.738281 17.726562 42.800781 C 17.71875 42.953125 17.71875 42.953125 17.65625 43.015625 C 17.394531 43.03125 17.136719 43.027344 16.878906 43.027344 C 16.804688 43.027344 16.734375 43.027344 16.65625 43.027344 C 16.585938 43.027344 16.519531 43.027344 16.445312 43.027344 C 16.382812 43.027344 16.316406 43.027344 16.25 43.03125 C 16.09375 43.015625 16.09375 43.015625 15.96875 42.890625 C 15.953125 42.738281 15.953125 42.738281 15.953125 42.554688 C 15.953125 42.484375 15.953125 42.417969 15.953125 42.351562 C 15.953125 42.246094 15.953125 42.246094 15.953125 42.140625 C 15.953125 42.070312 15.953125 42 15.953125 41.925781 C 15.953125 41.859375 15.953125 41.792969 15.953125 41.726562 C 15.953125 41.664062 15.953125 41.601562 15.953125 41.539062 C 15.976562 41.324219 16.039062 41.269531 16.253906 41.25 Z M 16.25 41.25 "/>
<path style=" stroke:none;fill-rule:nonzero;fill:rgb(94.509804%,37.254902%,2.352941%);fill-opacity:1;" d="M 8.75 41.25 C 8.816406 41.25 8.882812 41.25 8.953125 41.25 C 9.058594 41.25 9.058594 41.25 9.164062 41.25 C 9.234375 41.25 9.304688 41.25 9.375 41.25 C 9.441406 41.25 9.507812 41.25 9.578125 41.25 C 9.640625 41.25 9.699219 41.25 9.761719 41.25 C 9.914062 41.265625 9.914062 41.265625 10.039062 41.390625 C 10.054688 41.546875 10.054688 41.546875 10.054688 41.742188 C 10.054688 41.8125 10.054688 41.882812 10.054688 41.953125 C 10.050781 42.066406 10.050781 42.066406 10.050781 42.175781 C 10.050781 42.25 10.050781 42.324219 10.050781 42.398438 C 10.046875 42.945312 10.046875 42.945312 9.976562 43.015625 C 9.730469 43.03125 9.480469 43.027344 9.230469 43.027344 C 9.128906 43.03125 9.128906 43.03125 9.019531 43.03125 C 8.953125 43.03125 8.886719 43.03125 8.820312 43.03125 C 8.757812 43.03125 8.695312 43.03125 8.632812 43.03125 C 8.472656 43.015625 8.472656 43.015625 8.285156 42.890625 C 8.261719 42.742188 8.261719 42.742188 8.265625 42.554688 C 8.265625 42.488281 8.265625 42.421875 8.265625 42.355469 C 8.265625 42.285156 8.265625 42.214844 8.265625 42.140625 C 8.265625 42.070312 8.265625 42 8.265625 41.929688 C 8.269531 41.25 8.269531 41.25 8.746094 41.25 Z M 8.75 41.25 "/>
<path style=" stroke:none;fill-rule:nonzero;fill:rgb(94.509804%,37.254902%,2.352941%);fill-opacity:1;" d="M 19.8125 43.8125 C 19.878906 43.8125 19.945312 43.8125 20.015625 43.8125 C 20.121094 43.8125 20.121094 43.8125 20.226562 43.8125 C 20.296875 43.8125 20.367188 43.8125 20.4375 43.8125 C 20.503906 43.8125 20.570312 43.8125 20.640625 43.8125 C 20.703125 43.8125 20.761719 43.8125 20.828125 43.8125 C 20.976562 43.828125 20.976562 43.828125 21.101562 43.953125 C 21.117188 44.105469 21.117188 44.105469 21.117188 44.289062 C 21.117188 44.390625 21.117188 44.390625 21.117188 44.492188 C 21.117188 44.5625 21.117188 44.632812 21.117188 44.703125 C 21.117188 44.773438 21.117188 44.84375 21.117188 44.917969 C 21.117188 44.984375 21.117188 45.050781 21.117188 45.117188 C 21.117188 45.179688 21.117188 45.242188 21.117188 45.304688 C 21.101562 45.453125 21.101562 45.453125 20.976562 45.578125 C 20.839844 45.59375 20.839844 45.59375 20.671875 45.59375 C 20.609375 45.597656 20.550781 45.597656 20.488281 45.597656 C 20.394531 45.59375 20.394531 45.59375 20.296875 45.59375 C 20.234375 45.59375 20.171875 45.59375 20.105469 45.597656 C 20.015625 45.597656 20.015625 45.597656 19.921875 45.59375 C 19.867188 45.59375 19.8125 45.59375 19.753906 45.59375 C 19.59375 45.578125 19.492188 45.535156 19.351562 45.453125 C 19.347656 45.207031 19.347656 44.960938 19.34375 44.710938 C 19.34375 44.640625 19.34375 44.570312 19.339844 44.496094 C 19.339844 44.429688 19.339844 44.363281 19.339844 44.292969 C 19.339844 44.230469 19.339844 44.167969 19.335938 44.105469 C 19.367188 43.796875 19.546875 43.8125 19.8125 43.808594 Z M 19.8125 43.8125 "/>
<path style=" stroke:none;fill-rule:nonzero;fill:rgb(94.509804%,37.254902%,2.352941%);fill-opacity:1;" d="M 17.5 43.8125 C 17.570312 43.8125 17.640625 43.8125 17.710938 43.8125 C 17.816406 43.8125 17.816406 43.8125 17.921875 43.808594 C 18.023438 43.808594 18.023438 43.808594 18.125 43.808594 C 18.1875 43.808594 18.25 43.808594 18.3125 43.808594 C 18.386719 43.820312 18.386719 43.820312 18.460938 43.832031 C 18.605469 44.046875 18.601562 44.117188 18.597656 44.367188 C 18.597656 44.433594 18.597656 44.5 18.597656 44.570312 C 18.597656 44.640625 18.597656 44.710938 18.59375 44.78125 C 18.59375 44.851562 18.59375 44.921875 18.59375 44.996094 C 18.589844 45.171875 18.589844 45.34375 18.585938 45.519531 C 18.304688 45.597656 18.039062 45.59375 17.75 45.59375 C 17.695312 45.59375 17.644531 45.59375 17.589844 45.597656 C 17.511719 45.597656 17.511719 45.597656 17.433594 45.597656 C 17.386719 45.597656 17.339844 45.597656 17.292969 45.597656 C 17.125 45.578125 16.992188 45.523438 16.839844 45.457031 C 16.835938 45.210938 16.832031 44.960938 16.832031 44.714844 C 16.832031 44.644531 16.828125 44.574219 16.828125 44.5 C 16.828125 44.433594 16.828125 44.367188 16.828125 44.296875 C 16.828125 44.234375 16.828125 44.171875 16.824219 44.105469 C 16.859375 43.726562 17.207031 43.8125 17.5 43.8125 Z M 17.5 43.8125 "/>
<path style=" stroke:none;fill-rule:nonzero;fill:rgb(94.509804%,37.254902%,2.352941%);fill-opacity:1;" d="M 11.125 41.25 C 11.21875 41.25 11.21875 41.25 11.3125 41.25 C 11.378906 41.25 11.445312 41.25 11.515625 41.25 C 11.585938 41.253906 11.65625 41.253906 11.726562 41.253906 C 11.832031 41.253906 11.832031 41.253906 11.941406 41.253906 C 12.464844 41.257812 12.464844 41.257812 12.535156 41.328125 C 12.59375 41.859375 12.636719 42.414062 12.597656 42.953125 C 12.503906 43.046875 12.417969 43.023438 12.285156 43.023438 C 12.234375 43.023438 12.183594 43.023438 12.128906 43.023438 C 12.078125 43.023438 12.023438 43.023438 11.96875 43.023438 C 11.886719 43.023438 11.886719 43.023438 11.808594 43.023438 C 10.984375 43.023438 10.984375 43.023438 10.851562 42.890625 C 10.835938 42.640625 10.839844 42.390625 10.839844 42.144531 C 10.839844 42.078125 10.835938 42.003906 10.835938 41.933594 C 10.835938 41.867188 10.835938 41.800781 10.835938 41.730469 C 10.835938 41.667969 10.835938 41.605469 10.835938 41.542969 C 10.855469 41.332031 10.914062 41.273438 11.128906 41.253906 Z M 11.125 41.25 "/>
<path style=" stroke:none;fill-rule:nonzero;fill:rgb(94.509804%,37.254902%,2.352941%);fill-opacity:1;" d="M 14.5 43.8125 C 14.59375 43.8125 14.59375 43.8125 14.6875 43.8125 C 14.753906 43.8125 14.820312 43.8125 14.890625 43.8125 C 14.960938 43.8125 15.03125 43.816406 15.101562 43.816406 C 15.207031 43.816406 15.207031 43.816406 15.316406 43.816406 C 15.839844 43.820312 15.839844 43.820312 15.910156 43.890625 C 15.921875 44.011719 15.925781 44.132812 15.933594 44.253906 C 15.933594 44.324219 15.9375 44.398438 15.941406 44.472656 C 15.941406 44.550781 15.945312 44.628906 15.945312 44.707031 C 15.949219 44.785156 15.953125 44.859375 15.953125 44.941406 C 15.960938 45.132812 15.96875 45.324219 15.972656 45.515625 C 15.726562 45.640625 15.410156 45.589844 15.136719 45.589844 C 15.039062 45.589844 15.039062 45.589844 14.9375 45.589844 C 14.871094 45.589844 14.808594 45.589844 14.742188 45.59375 C 14.683594 45.59375 14.625 45.59375 14.566406 45.59375 C 14.414062 45.578125 14.414062 45.578125 14.226562 45.453125 C 14.203125 45.300781 14.203125 45.300781 14.203125 45.117188 C 14.203125 45.050781 14.203125 44.984375 14.203125 44.914062 C 14.207031 44.84375 14.207031 44.773438 14.207031 44.703125 C 14.207031 44.632812 14.207031 44.5625 14.207031 44.492188 C 14.210938 43.839844 14.210938 43.839844 14.503906 43.808594 Z M 14.5 43.8125 "/>
</g>
</svg>
